<svg width="378" height="365" xmlns="http://www.w3.org/2000/svg" xmlns:xlink="http://www.w3.org/1999/xlink"><svg width="6" height="12" x="352" y="70" xmlns="http://www.w3.org/2000/svg"><path stroke="#5D646E" stroke-width="1.2" d="M1.7 2.7l3 3.3-3 3.3" fill="none"/></svg><svg width="6" height="12" x="352" y="82" xmlns="http://www.w3.org/2000/svg"><path stroke="#0085DD" stroke-width="1.2" d="M1.7 2.7l3 3.3-3 3.3" fill="none"/></svg><svg width="14" height="14" x="338" y="127" xmlns="http://www.w3.org/2000/svg"><g fill="none" fill-rule="evenodd"><path d="M0 0h14v14H0z"/><path d="M3.778 1.981a.885.885 0 00.076 1.092l3.618 3.926-3.618 3.928a.884.884 0 000 1.187.793.793 0 001.176 0l4.01-4.352c.391-.424.391-1.1 0-1.524L5.03 1.886a.793.793 0 00-1.176 0l-.076.095z" fill="#919191" fill-rule="nonzero"/></g></svg><svg width="14" height="14" x="346" y="330" xmlns="http://www.w3.org/2000/svg"><g fill="none" fill-rule="evenodd"><path d="M0 0h14v14H0z"/><path d="M3.778 1.981a.885.885 0 00.076 1.092l3.618 3.926-3.618 3.928a.884.884 0 000 1.187.793.793 0 001.176 0l4.01-4.352c.391-.424.391-1.1 0-1.524L5.03 1.886a.793.793 0 00-1.176 0l-.076.095z" fill="#555" fill-rule="nonzero" opacity=".9"/></g></svg><svg width="6" height="9" fill="none" x="352" y="127" xmlns="http://www.w3.org/2000/svg"><path d="M1.497.744l3.75 3.75-3.75 3.75" stroke="#0E1319" stroke-opacity=".9" stroke-linecap="round" stroke-linejoin="round"/></svg><svg x="360" y="287" width="15" height="15" xmlns="http://www.w3.org/2000/svg"><circle cx="7.5" cy="7.5" r="6.5" fill="none" stroke="#0b121a" stroke-opacity=".6"/><path d="M6.6 4.5l3.1 3-3.1 3v-6z" fill-rule="evenodd" clip-rule="evenodd" fill="#0b121a" fill-opacity=".6"/></svg><svg x="360" y="302" width="15" height="15" xmlns="http://www.w3.org/2000/svg"><circle cx="7.5" cy="7.5" r="6.5" fill="none" stroke="#0085dd"/><path d="M6.6 4.5l3.1 3-3.1 3v-6z" fill-rule="evenodd" clip-rule="evenodd" fill="#0085dd"/></svg><svg width="14" height="15" x="360" y="317" xmlns="http://www.w3.org/2000/svg"><g fill="none" fill-rule="evenodd" stroke="#00C8E4" transform="translate(0 .7)"><circle cx="7" cy="7" r="6.5"/><path stroke-linecap="square" stroke-width="1.2" d="M6.088 4.002l2.658 3-2.658 3"/></g></svg><svg width="20" height="20" fill="none" x="297" y="210" xmlns="http://www.w3.org/2000/svg"><path fill-rule="evenodd" clip-rule="evenodd" d="M1.218 2.092C1 2.52 1 3.08 1 4.2v11.6c0 1.12 0 1.68.218 2.108a2 2 0 00.874.874C2.52 19 3.08 19 4.2 19h11.6c1.12 0 1.68 0 2.108-.218a2 2 0 00.874-.874C19 17.48 19 16.92 19 15.8V4.2c0-1.12 0-1.68-.218-2.108a2 2 0 00-.874-.874C17.48 1 16.92 1 15.8 1H4.2c-1.12 0-1.68 0-2.108.218a2 2 0 00-.874.874zm8.09 6.29L9.903 5l6.857 6.113-.147.003h-4.216l-1.39 7.835h-3.57l1.387-7.835h-2.8L3.5 8.391l5.808-.01z" fill="#8393A5"/></svg><svg width="20" height="20" fill="none" x="317" y="210" xmlns="http://www.w3.org/2000/svg"><path fill-rule="evenodd" clip-rule="evenodd" d="M1 3a2 2 0 012-2h14a2 2 0 012 2v14a2 2 0 01-2 2H3a2 2 0 01-2-2V3zm6.75 3.397l-4.154 4.155c-.44.44-.44 1.152 0 1.59l1.137 1.138 4.95-4.95L7.75 6.397zm-.13 5.27l4.95-4.95 3.835 3.835c.44.44.44 1.152 0 1.59l-1.455 1.455-2.7-2.7-2.7 2.7-1.93-1.93z" fill="#8393A5"/></svg><svg width="20" height="20" fill="none" x="337" y="210" xmlns="http://www.w3.org/2000/svg"><path fill-rule="evenodd" clip-rule="evenodd" d="M2.609 2C1.72 2 1 2.72 1 3.609V16.39c0 .89.72 1.61 1.609 1.61H17.28c.889 0 1.609-.72 1.609-1.609V3.61c0-.889-.72-1.609-1.609-1.609H2.61zm1.786 2.968a.603.603 0 00-.568 1.064L8.904 8.74a2.21 2.21 0 002.081 0l5.077-2.708a.603.603 0 00-.568-1.064l-5.076 2.707a1.005 1.005 0 01-.947 0L4.395 4.968z" fill="#8393A5"/></svg><svg width="20" height="20" fill="none" x="180" y="300" xmlns="http://www.w3.org/2000/svg"><path fill-rule="evenodd" clip-rule="evenodd" d="M2.77 2A1.77 1.77 0 001 3.77v13.075c0 .978.793 1.77 1.77 1.77h14.46a1.77 1.77 0 001.77-1.77V3.77A1.77 1.77 0 0017.23 2H2.77zm1 3.461c0-.382.31-.692.692-.692h11.077a.692.692 0 110 1.385H4.462a.692.692 0 01-.693-.693zM14.5 11a1.038 1.038 0 100-2.077 1.038 1.038 0 000 2.077zm-9 0a1.038 1.038 0 100-2.077A1.038 1.038 0 005.5 11zm5.539-1.038a1.038 1.038 0 11-2.077 0 1.038 1.038 0 012.077 0zm3.461 5.192a1.038 1.038 0 100-2.077 1.038 1.038 0 000 2.077zm-9 0a1.038 1.038 0 100-2.077 1.038 1.038 0 000 2.077zm5.539-1.039a1.038 1.038 0 11-2.077 0 1.038 1.038 0 012.077 0z" fill="#8393A5"/></svg><svg width="20" height="20" fill="none" x="200" y="300" xmlns="http://www.w3.org/2000/svg"><path fill-rule="evenodd" clip-rule="evenodd" d="M9.001.426a1.817 1.817 0 011.802 0l6.751 3.854c.567.323.917.926.917 1.578V7.72l-4.713 2.688V8.19c0-.396-.215-.76-.56-.953L10.43 5.7a1.096 1.096 0 00-.061-.031L5.093 2.658 9 .426zM8.726 6.06L3.928 3.322 2.25 4.28a1.817 1.817 0 00-.917 1.578v7.672c0 .652.35 1.254.917 1.578l3.796 2.166V8.191c0-.396.215-.76.56-.953l2.12-1.178zm-1.395 6.488v5.46l1.67.953a1.817 1.817 0 001.802 0l6.751-3.853c.567-.324.917-.926.917-1.579V9.136l-5.202 2.966a.864.864 0 01-.072.044l-.182.101-1.38.787-.009-.015-1.194.664a1.09 1.09 0 01-1.06 0l-2.04-1.134z" fill="#8393A5"/></svg><svg width="20" height="20" fill="none" x="220" y="300" xmlns="http://www.w3.org/2000/svg"><path fill-rule="evenodd" clip-rule="evenodd" d="M1.218 2.092C1 2.52 1 3.08 1 4.2v11.6c0 1.12 0 1.68.218 2.108a2 2 0 00.874.874C2.52 19 3.08 19 4.2 19h11.6c1.12 0 1.68 0 2.108-.218a2 2 0 00.874-.874C19 17.48 19 16.92 19 15.8V4.2c0-1.12 0-1.68-.218-2.108a2 2 0 00-.874-.874C17.48 1 16.92 1 15.8 1H4.2c-1.12 0-1.68 0-2.108.218a2 2 0 00-.874.874zm8.09 6.29L9.903 5l6.857 6.113-.147.003h-4.216l-1.39 7.835h-3.57l1.387-7.835h-2.8L3.5 8.391l5.808-.01z" fill="#267EF0"/></svg><svg width="20" height="20" fill="none" x="240" y="300" xmlns="http://www.w3.org/2000/svg"><path fill-rule="evenodd" clip-rule="evenodd" d="M1 3a2 2 0 012-2h14a2 2 0 012 2v14a2 2 0 01-2 2H3a2 2 0 01-2-2V3zm6.75 3.397l-4.154 4.155c-.44.44-.44 1.152 0 1.59l1.137 1.138 4.95-4.95L7.75 6.397zm-.13 5.27l4.95-4.95 3.835 3.835c.44.44.44 1.152 0 1.59l-1.455 1.455-2.7-2.7-2.7 2.7-1.93-1.93z" fill="#267EF0"/></svg><svg width="20" height="20" fill="none" x="260" y="300" xmlns="http://www.w3.org/2000/svg"><path fill-rule="evenodd" clip-rule="evenodd" d="M2.609 2C1.72 2 1 2.72 1 3.609V16.39c0 .89.72 1.61 1.609 1.61H17.28c.889 0 1.609-.72 1.609-1.609V3.61c0-.889-.72-1.609-1.609-1.609H2.61zm1.786 2.968a.603.603 0 00-.568 1.064L8.904 8.74a2.21 2.21 0 002.081 0l5.077-2.708a.603.603 0 00-.568-1.064l-5.076 2.707a1.005 1.005 0 01-.947 0L4.395 4.968z" fill="#267EF0"/></svg><svg width="20" height="20" fill="none" x="280" y="300" xmlns="http://www.w3.org/2000/svg"><path fill-rule="evenodd" clip-rule="evenodd" d="M2.77 2A1.77 1.77 0 001 3.77v13.075c0 .978.793 1.77 1.77 1.77h14.46a1.77 1.77 0 001.77-1.77V3.77A1.77 1.77 0 0017.23 2H2.77zm1 3.461c0-.382.31-.692.692-.692h11.077a.692.692 0 110 1.385H4.462a.692.692 0 01-.693-.693zM14.5 11a1.038 1.038 0 100-2.077 1.038 1.038 0 000 2.077zm-9 0a1.038 1.038 0 100-2.077A1.038 1.038 0 005.5 11zm5.539-1.038a1.038 1.038 0 11-2.077 0 1.038 1.038 0 012.077 0zm3.461 5.192a1.038 1.038 0 100-2.077 1.038 1.038 0 000 2.077zm-9 0a1.038 1.038 0 100-2.077 1.038 1.038 0 000 2.077zm5.539-1.039a1.038 1.038 0 11-2.077 0 1.038 1.038 0 012.077 0z" fill="#267EF0"/></svg><svg width="20" height="20" fill="none" x="300" y="300" xmlns="http://www.w3.org/2000/svg"><path fill-rule="evenodd" clip-rule="evenodd" d="M9.001.426a1.817 1.817 0 011.802 0l6.751 3.854c.567.323.917.926.917 1.578V7.72l-4.713 2.688V8.19c0-.396-.215-.76-.56-.953L10.43 5.7a1.096 1.096 0 00-.061-.031L5.093 2.658 9 .426zM8.726 6.06L3.928 3.322 2.25 4.28a1.817 1.817 0 00-.917 1.578v7.672c0 .652.35 1.254.917 1.578l3.796 2.166V8.191c0-.396.215-.76.56-.953l2.12-1.178zm-1.395 6.488v5.46l1.67.953a1.817 1.817 0 001.802 0l6.751-3.853c.567-.324.917-.926.917-1.579V9.136l-5.202 2.966a.864.864 0 01-.072.044l-.182.101-1.38.787-.009-.015-1.194.664a1.09 1.09 0 01-1.06 0l-2.04-1.134z" fill="#267EF0"/></svg><svg width="120" height="120" fill="none" xmlns="http://www.w3.org/2000/svg"><g clip-path="url(#asclip0_2644_245308)"><circle cx="60" cy="60" r="60" fill="#F7F8F8"/><path fill-rule="evenodd" clip-rule="evenodd" d="M53.943 38.716a13.608 13.608 0 015.56-1.18c2.032 0 3.96.444 5.688 1.237l2.357-3.666c.083-.128.29-.143.463-.035.173.11.246.301.164.43l-2.316 3.6c3.239 1.707 5.693 4.679 6.689 8.248H46.46c1.009-3.614 3.512-6.615 6.81-8.312l-2.274-3.536c-.082-.129-.009-.32.164-.43.173-.108.38-.093.462.035l2.32 3.609zm-9.2 13.276V65.14c-.018 1.202-1.113 2.171-2.461 2.171h-.82c-1.36 0-2.462-.985-2.462-2.2V52.02c0-1.215 1.102-2.2 2.461-2.2h.82c1.35 0 2.444.97 2.462 2.172zm1.852 2.952v-6.036H72.49v22.056c-.201 1.058-1.101 1.856-2.181 1.856H67.9v6.884c0 1.215-.996 2.2-2.223 2.2H64.38a2.212 2.212 0 01-2.223-2.2V72.82h-5.002v6.884c0 1.215-.995 2.2-2.223 2.2h-1.297a2.212 2.212 0 01-2.223-2.2V72.82h-2.593c-1.228 0-2.224-1.032-2.224-2.305V54.944zM77.48 67.312c1.36 0 2.461-.985 2.461-2.2V52.02c0-1.215-1.102-2.2-2.461-2.2h-.82c-1.36 0-2.462.985-2.462 2.2v13.092c0 1.215 1.102 2.2 2.462 2.2h.82zm-24.983-24.05c0 .76.623 1.376 1.39 1.376.767 0 1.39-.616 1.39-1.375 0-.76-.623-1.375-1.39-1.375-.767 0-1.39.615-1.39 1.375zm12.412 1.192c.768 0 1.39-.615 1.39-1.375s-.622-1.375-1.39-1.375c-.767 0-1.389.616-1.389 1.375 0 .76.622 1.375 1.39 1.375z" fill="#4A535D"/><path fill-rule="evenodd" clip-rule="evenodd" d="M53.943 38.716a13.608 13.608 0 015.56-1.18c2.032 0 3.96.444 5.688 1.237l2.357-3.666c.083-.128.29-.143.463-.035.173.11.246.301.164.43l-2.316 3.6c3.239 1.707 5.693 4.679 6.689 8.248H46.46c1.009-3.614 3.512-6.615 6.81-8.312l-2.274-3.536c-.082-.129-.009-.32.164-.43.173-.108.38-.093.462.035l2.32 3.609zm-9.2 13.276V65.14c-.018 1.202-1.113 2.171-2.461 2.171h-.82c-1.36 0-2.462-.985-2.462-2.2V52.02c0-1.215 1.102-2.2 2.461-2.2h.82c1.35 0 2.444.97 2.462 2.172zm1.852 2.952v-6.036H72.49v22.056c-.201 1.058-1.101 1.856-2.181 1.856H67.9v6.884c0 1.215-.996 2.2-2.223 2.2H64.38a2.212 2.212 0 01-2.223-2.2V72.82h-5.002v6.884c0 1.215-.995 2.2-2.223 2.2h-1.297a2.212 2.212 0 01-2.223-2.2V72.82h-2.593c-1.228 0-2.224-1.032-2.224-2.305V54.944zM77.48 67.312c1.36 0 2.461-.985 2.461-2.2V52.02c0-1.215-1.102-2.2-2.461-2.2h-.82c-1.36 0-2.462.985-2.462 2.2v13.092c0 1.215 1.102 2.2 2.462 2.2h.82zm-24.983-24.05c0 .76.623 1.376 1.39 1.376.767 0 1.39-.616 1.39-1.375 0-.76-.623-1.375-1.39-1.375-.767 0-1.39.615-1.39 1.375zm12.412 1.192c.768 0 1.39-.615 1.39-1.375s-.622-1.375-1.39-1.375c-.767 0-1.389.616-1.389 1.375 0 .76.622 1.375 1.39 1.375z" fill="#2ECC7D"/></g><defs><clipPath id="asclip0_2644_245308"><path fill="#fff" d="M0 0h120v120H0z"/></clipPath></defs></svg><svg width="120" height="120" fill="none" x="120" xmlns="http://www.w3.org/2000/svg"><circle cx="60" cy="60" r="60" fill="#F7F8F8"/><circle cx="60" cy="60" r="25" fill="#267EF0"/><path d="M60.803 61.737H56.38l3.33-5.745.337-.586 2.281-3.92.44-.766.946-1.622c.417-.71.428-1.622-.045-2.293A1.854 1.854 0 0062.11 46c-.676 0-1.335.35-1.707.98l-.338.597-.35-.597A1.986 1.986 0 0058.01 46c-.338 0-.676.079-.991.26a1.966 1.966 0 00-.71 2.686l1.47 2.54-5.948 10.262h-3.863a1.985 1.985 0 00-1.944 2.293c.147.968 1.054 1.644 2.034 1.644h1.492l4.551-.011h9.085a.55.55 0 00.44-.208c.518-.693.9-1.769-.367-2.879-.67-.591-1.565-.85-2.455-.85z" fill="#fff"/><path d="M72.047 61.724h-3.785L63.2 52.988c-.09-.152-.293-.203-.434-.101-.71.512-1.126 1.228-1.34 2.016-.36 1.33-.062 2.754.625 3.948l1.087 1.887.574 1.003 2.282 3.931.236.395 2.191 3.785a1.967 1.967 0 002.698.71 1.964 1.964 0 00.71-2.688l-1.279-2.213h1.594c1.183 0 2.123-1.07 1.932-2.304-.158-.963-1.053-1.633-2.028-1.633zm-20.49 4.46a2.858 2.858 0 00-1.87-.1 1.126 1.126 0 00-.67.529l-.733 1.25a1.959 1.959 0 00.71 2.687c.315.18.665.27 1.002.27a1.93 1.93 0 001.685-.98l.833-1.436c.203-.355.242-.783.09-1.16a1.852 1.852 0 00-1.047-1.06z" fill="#fff"/></svg><svg width="120" height="120" fill="none" y="120" xmlns="http://www.w3.org/2000/svg"><circle cx="60" cy="60" r="60" fill="#F7F8F8"/><path d="M57.89 58.788V43.325L41 45.981v12.806h16.89zM60 60.902v15.794l19 2.994V60.902H60zm0-2.114h19V40l-19 2.99v15.798zm-2.11 2.114H41v12.805l16.89 2.658V60.902z" fill="#00ADEF"/></svg><svg width="120" height="120" fill="none" x="120" y="120" xmlns="http://www.w3.org/2000/svg"><circle cx="60" cy="60" r="60" fill="#F7F8F8"/><path fill-rule="evenodd" clip-rule="evenodd" d="M67.42 39.717c1.451-1.832 2.617-4.785 2.36-7.717-2.582.099-5.668 1.67-7.863 3.858-1.26 1.81-2.69 4.807-2.358 7.717 2.88.158 5.774-1.474 7.862-3.858zM80 67.497c-.062.277-1.03 3.618-3.145 6.946-2.316 3.072-4.442 6.06-7.862 6.173-3.241-.004-4.298-2.013-7.862-2.315-3.972.302-5.156 2.201-8.648 2.315-2.856.127-5.338-3.241-7.076-6.173-4.545-6.06-7.792-17.139-3.145-24.694 1.852-3.585 5.704-5.946 10.22-6.174 2.84.105 5.848 2.285 7.863 2.316 1.878-.031 5.517-2.67 9.434-2.316 1.529.109 6.025.707 8.649 4.63.044.39-5.107 3.401-4.718 9.26-.255 7.67 6.22 10.098 6.29 10.032z" fill="#0E131A" fill-opacity=".82"/></svg><svg width="120" height="30" x="240" xmlns="http://www.w3.org/2000/svg"><defs><path d="M.445.694a.453.453 0 00.062.691 5.807 5.807 0 011.71 3.104 2.01 2.01 0 00.063.384 1.9 1.9 0 00.482.837 1.86 1.86 0 002.648 0c.73-.738.73-1.934 0-2.672a1.853 1.853 0 00-1.015-.528c-.037-.007-.075-.011-.113-.017A5.716 5.716 0 011.26.883a3.968 3.968 0 01-.18-.189.441.441 0 00-.634 0z" id="a"/><path d="M2.479 1.447a1.892 1.892 0 00-.537 1.139A5.83 5.83 0 01.158 5.82a.455.455 0 000 .64.444.444 0 00.598.031c.012-.01.025-.02.035-.031a.465.465 0 00.052-.063A5.728 5.728 0 013.918 4.67a1.828 1.828 0 00.38-.064 1.85 1.85 0 00.83-.486 1.902 1.902 0 000-2.673 1.859 1.859 0 00-2.65 0z" id="b"/><path d="M.916.78a1.903 1.903 0 000 2.674 1.87 1.87 0 001.015.526c.038.006.075.012.113.016a5.734 5.734 0 013.204 1.801.446.446 0 00.633 0 .456.456 0 00-.062-.692c-.044-.042-.088-.083-.13-.126A5.83 5.83 0 014.108 2a1.495 1.495 0 00-.021-.183A1.89 1.89 0 003.565.78a1.86 1.86 0 00-2.649 0z" id="c"/><path d="M5.57.934c-.012.01-.025.02-.035.031a.564.564 0 00-.053.064c-.04.044-.083.087-.124.13a5.733 5.733 0 01-2.95 1.597 1.856 1.856 0 00-1.21.55 1.902 1.902 0 000 2.672 1.86 1.86 0 002.648 0 1.88 1.88 0 00.5-.911c.01-.037.016-.075.023-.113.006-.038.01-.075.015-.115a5.828 5.828 0 011.784-3.234.454.454 0 000-.64.449.449 0 00-.599-.031z" id="d"/></defs><g fill="none" fill-rule="evenodd"><path d="M36.755 12.264c3.378-1.705 6.424-4.075 8.823-6.866h1.341c2.512 2.872 5.546 5.225 8.79 6.814l-.966 1.767c-3.258-1.731-6.068-3.992-8.352-6.724l-.144-.17-.14.171c-2.131 2.581-4.968 4.848-8.433 6.74l-.92-1.732zm.842 11.376v-1.703h3.078V13.97h1.694v7.967H46v-10.98h1.74v4.567h5.4v1.704h-5.4v4.709h6.912v1.703H37.597zm21.152-13.605c1.095 3.106 1.943 6.053 2.588 8.998l1.604-.392a72.12 72.12 0 00-2.7-9.114l-1.492.508zm12.814 8.507l1.522.539c1.098-2.479 2.017-5.418 2.808-8.972l-1.549-.443c-.963 4.097-1.803 6.779-2.78 8.876zM58.264 23.64h18.13v-1.757h-6.229V5.523h-1.8v16.36H66.02V5.523h-1.8v16.36h-5.956v1.757zm25.692-12.212h6.326v-4.89H89.11v3.555h-1.335V5.408l-1.345-.01.046 4.695h-1.36V6.538h-1.159v4.89zm-5.549-.742l.775 1.46a15.533 15.533 0 004.02-5.86l-1.369-.74c-.744 1.865-2.065 3.847-3.426 5.14zM94.2 17l-.193-.624c-.385-1.241-.773-2.965-1.093-4.856l-.008-.041.012-.04c.063-.234.093-.403.125-.582.03-.171.062-.35.124-.594l.034-.141h1.94l-.007.193c-.089 2.416-.34 4.395-.77 6.053L94.2 17zm-11.092 5.957l1.104 1.154c1.136-1.268 1.73-3.057 1.767-5.322v-1.125h1.986v3.259a1.209 1.209 0 01-.42.727l.7 1.326 3.14-2.616-.406-1.26-1.503 1.281v-4.118h-5.112v2.529c-.023 1.98-.4 3.24-1.256 4.165zm-2.383 1.434h1.425l.033-10.633c.398-.73.7-1.36.921-1.92l-1.326-.718c-.63 1.686-1.824 3.477-3.387 5.078l.716 1.35c.287-.283.58-.62.864-.945.148-.17.293-.336.43-.488l.324-.356v8.632zm3.1-9.815h6.252v-1.422h-6.252v1.422zm10.385 5.88l.157.326c.69 1.438 1.49 2.71 2.173 3.462l1.021-1.513c-.848-.797-1.802-2.22-2.577-3.856l-.035-.072.028-.074c.933-2.48 1.394-5.08 1.495-8.426l.006-.181h.892v-1.48h-3.85l.037-.216c.103-.63.197-1.385.287-2.115l.083-.654-1.492-.269c-.38 3.61-1.052 6.595-2 8.879l-.226.542.917 1.215c.227-.435.463-.938.747-1.59l.231-.535.121.57a34.226 34.226 0 001.172 4.26l.025.07-.03.068c-.664 1.519-1.66 2.915-2.816 3.953l.918 1.244a13.677 13.677 0 002.543-3.291l.173-.316zm12.647-7.742h10.26v-1.5h-10.26v1.5zm.031 3.127h10.259l-.003-1.505h-10.243l-.013 1.505zm1.638 6.695h7.14v-3.46h-7.14v3.46zm-1.623 1.462h10.354v-6.446h-10.354v6.446zm-1.502-14.342h13.268v-1.58h-5.86l-.917-2.448-1.617.44.806 2.008h-5.68v1.58zm-3.354 14.735h1.657l.022-14.108c.649-1.237 1.184-2.6 1.68-4.276l-1.624-.763c-.997 3.495-2.366 6.137-4.18 8.064l.672 1.862c.118-.133.239-.268.362-.403.37-.41.753-.835 1.077-1.27l.334-.451V24.39z" fill="#0082EF"/><use fill="#FB6500" xlink:href="#a" transform="translate(21.378 23.14)"/><use fill="#0082EF" xlink:href="#b" transform="translate(26.955 19.399)"/><use fill="#2DBC00" xlink:href="#c" transform="translate(23.237 14.721)"/><use fill="#FC0" xlink:href="#d" transform="translate(17.66 17.528)"/><path d="M13.604 2.172c-.546 0-1.112.032-1.68.094-3.33.366-6.357 1.804-8.522 4.048a11.47 11.47 0 00-2.065 2.938 10.325 10.325 0 00-1.058 4.55c0 2.03.613 4.034 1.771 5.793.605.918 1.585 2.048 2.438 2.812l.047.042v.064l-.418 3.27c-.012.034-.025.067-.032.101-.008.031-.01.064-.012.097l-.008.059c-.002.014-.004.027-.004.04 0 .018.003.033.005.049l.006.045a.895.895 0 00.886.812.878.878 0 00.443-.122l.071-.042 3.908-1.98.053.014c.778.226 1.593.384 2.49.484a15.084 15.084 0 006.465-.686 2.035 2.035 0 01-1.041-1.768c-.734.224-1.487.38-2.242.467a13.232 13.232 0 01-2.937.008l-.186-.024-.11-.016a12.597 12.597 0 01-1.925-.408 1.17 1.17 0 00-.921.097.8.8 0 00-.075.038l-2.466 1.467c-.252.147-.476-.012-.476-.242l.372-1.475.193-.74a.866.866 0 00-.305-.965 11.008 11.008 0 01-1.002-.85 9.906 9.906 0 01-1.42-1.695c-.945-1.435-1.444-3.062-1.444-4.707 0-1.279.29-2.52.86-3.692a9.461 9.461 0 011.702-2.42c1.822-1.887 4.38-3.098 7.204-3.407a12.831 12.831 0 012.936.006c2.81.323 5.354 1.54 7.161 3.426a9.44 9.44 0 011.694 2.425 8.367 8.367 0 01.843 3.809c.7-.321 1.522-.21 2.114.29a10.325 10.325 0 00-1.029-4.99 11.46 11.46 0 00-2.055-2.945c-2.148-2.242-5.157-3.688-8.474-4.068a15.44 15.44 0 00-1.755-.103" fill="#0082F0"/></g></svg><svg width="14" height="15" fill="none" x="360" y="332" xmlns="http://www.w3.org/2000/svg"><circle cx="7" cy="7.5" r="6.25" stroke="#FFF" stroke-width="1.5"/><path fill-rule="evenodd" clip-rule="evenodd" d="M6.088 4.502l3.058 3-3.058 3v-6z" fill="#FFF"/></svg><svg width="32" height="32" x="240" y="146" xmlns="http://www.w3.org/2000/svg"><g fill="#0085DD" fill-rule="evenodd"><path d="M5 6h23a1 1 0 011 1v18a1 1 0 01-1 1H5a1 1 0 01-1-1V7a1 1 0 011-1zm6 11.25a1.25 1.25 0 100-2.5 1.25 1.25 0 000 2.5zm5.5 0a1.25 1.25 0 100-2.5 1.25 1.25 0 000 2.5zm5.5 0a1.25 1.25 0 100-2.5 1.25 1.25 0 000 2.5z"/><path d="M5 12l-4 3.939L5 20z"/></g></svg><svg width="32" height="32" x="272" y="146" xmlns="http://www.w3.org/2000/svg"><g fill="#0085DD" fill-rule="evenodd"><path d="M25.666 18.632c-.714 0-1.285-.596-1.285-1.342 0-.746.571-1.343 1.285-1.343s1.285.597 1.285 1.343c0 .708-.57 1.342-1.285 1.342m-6.333 0c-.714 0-1.285-.596-1.285-1.342 0-.746.57-1.343 1.285-1.343.714 0 1.285.597 1.285 1.343 0 .708-.571 1.342-1.285 1.342m9.398 7.537C30.735 24.662 32 22.42 32 19.959c0-4.557-4.218-8.232-9.455-8.232-5.236 0-9.454 3.675-9.454 8.231 0 4.557 4.218 8.232 9.454 8.232 1.09 0 2.11-.147 3.093-.441.07-.037.176-.037.282-.037.175 0 .351.073.492.147l2.073 1.25c.07.036.106.073.176.073a.322.322 0 00.316-.33c0-.074-.035-.148-.035-.258 0-.037-.281-1.029-.422-1.654-.035-.073-.035-.147-.035-.22a.527.527 0 01.246-.551"/><path d="M15.515 11.033a1.494 1.494 0 110-2.989c.845 0 1.514.66 1.514 1.495 0 .8-.669 1.494-1.514 1.494m-7.757 0a1.494 1.494 0 110-2.989c.844 0 1.513.66 1.513 1.495 0 .8-.669 1.494-1.513 1.494M11.728 3C5.264 3 0 7.287 0 12.61c0 2.894 1.561 5.502 4.066 7.253a.806.806 0 01.327.643c0 .071-.036.178-.036.25-.182.714-.508 1.893-.545 1.929-.036.107-.072.178-.072.286a.4.4 0 00.399.393c.073 0 .145-.036.218-.072l2.578-1.465c.181-.107.399-.178.617-.178.109 0 .218 0 .327.036 1.198.321 2.505.535 3.812.535h.653a7.31 7.31 0 01-.399-2.357c0-4.823 4.792-8.753 10.674-8.753h.654C22.438 6.5 17.573 3 11.727 3"/></g></svg><svg width="32" height="32" x="304" y="146" xmlns="http://www.w3.org/2000/svg"><g fill="#0085DD" fill-rule="evenodd"><path d="M20.769 17.281a9.566 9.566 0 001.21-4.671A9.61 9.61 0 0012.368 3C7.234 3 3.04 7.027 2.773 12.095H2.77l-.21 1.869a17.18 17.18 0 01-1.047 4.267l-.483 1.25a.6.6 0 00.56.816h2.13v2.766a3 3 0 003 3h.844V29h10.57v-1.093a20 20 0 011.29-7.064l1.345-3.562z"/><path d="M10.519 17.497a10.248 10.248 0 01-1.269-4.955c0-5.684 4.608-10.292 10.292-10.292 5.454 0 9.949 4.253 10.274 9.667l.208 1.852a14.31 14.31 0 001.078 4.058l.523 1.215a1.35 1.35 0 01-1.24 1.884H28.88V22.9a3.75 3.75 0 01-3.75 3.75h-.067v3.099H13.067v-1.992c0-2.323-.42-4.626-1.24-6.8l-1.308-3.461z" stroke="#FFF" stroke-width="1.5"/></g></svg><svg width="32" height="32" x="240" y="178" xmlns="http://www.w3.org/2000/svg"><g fill="none" fill-rule="evenodd"><rect fill="#0085DD" x="1" y="19" width="9" height="9" rx=".5"/><rect fill="#0085DD" x="12" y="19" width="9" height="9" rx=".5"/><rect fill="#0085DD" x="12" y="2" width="8" height="8" rx=".5"/><rect fill="#0085DD" x="23" y="19" width="9" height="9" rx=".5"/><path d="M5.5 20.15v-5.564a.5.5 0 01.5-.5h21a.5.5 0 01.5.5v5.596" stroke="#0085DD" stroke-width="1.5"/></g></svg><svg width="32" height="32" x="272" y="178" xmlns="http://www.w3.org/2000/svg"><g fill="#0085DD" fill-rule="evenodd"><path d="M16 16l15.001 5.625a.4.4 0 010 .75L16 28 .999 22.375a.4.4 0 010-.75L16 16z"/><path d="M16 9.146l15.282 5.73a1.2 1.2 0 010 2.248L16 22.854.718 17.124a1.2 1.2 0 010-2.248L16 9.146z" stroke="#FFF" stroke-width="1.6"/><path d="M16 3.146l15.282 5.73a1.2 1.2 0 010 2.248L16 16.854.718 11.124a1.2 1.2 0 010-2.248L16 3.146z" stroke="#FFF" stroke-width="1.6"/></g></svg><svg width="32" height="32" x="304" y="178" xmlns="http://www.w3.org/2000/svg"><path d="M4.5 4h10a.5.5 0 01.5.5v10a.5.5 0 01-.5.5h-10a.5.5 0 01-.5-.5v-10a.5.5 0 01.5-.5zm13 0h10a.5.5 0 01.5.5v10a.5.5 0 01-.5.5h-10a.5.5 0 01-.5-.5v-10a.5.5 0 01.5-.5zm0 13h10a.5.5 0 01.5.5v10a.5.5 0 01-.5.5h-10a.5.5 0 01-.5-.5v-10a.5.5 0 01.5-.5zm-13 0h10a.5.5 0 01.5.5v10a.5.5 0 01-.5.5h-10a.5.5 0 01-.5-.5v-10a.5.5 0 01.5-.5z" fill="#0085DD" fill-rule="evenodd"/></svg><svg width="11" height="11" x="348" y="166" xmlns="http://www.w3.org/2000/svg"><path d="M.55 5.98h8.58L6.215 9.044a.552.552 0 000 .787c.22.225.55.225.77 0l3.85-3.937a.552.552 0 000-.788L6.985 1.17A.587.587 0 006.6 1a.494.494 0 00-.385.169.552.552 0 000 .787l2.915 3.05H.55c-.33 0-.55.156-.55.494 0 .338.275.563.55.563V5.98z" fill="#232323" fill-rule="evenodd"/></svg><svg width="18" height="18" fill="none" x="238" y="330" xmlns="http://www.w3.org/2000/svg"><path clip-rule="evenodd" d="M12.438 13.95v-1.23c0-.641-.427-.905-2.653-1.81C7.56 10.005 8.36 8.383 8.36 8.383c.88-1.405.986-2.324.692-4.08C8.864 3.172 7.49 2.84 7.22 2.811a2.484 2.484 0 00-.653 0c-.261.028-1.644.361-1.832 1.49-.293 1.757-.187 2.676.693 4.081 0 0 .8 1.622-1.426 2.527S1.35 12.083 1.35 12.72v1.23h11.087z" stroke="#0D131A" stroke-opacity=".8"/><path d="M14.553 13.95h2.402v-.932c0-.486-.323-.686-2.01-1.373-1.687-.686-1.081-1.915-1.081-1.915.667-1.065.747-1.762.525-3.094-.143-.856-1.185-1.108-1.39-1.13a1.883 1.883 0 00-.494 0c-.198.022-1.246.274-1.39 1.13-.221 1.332-.14 2.029.526 3.094" stroke="#0D131A" stroke-opacity=".8"/></svg><svg width="18" height="18" fill="none" x="256" y="330" xmlns="http://www.w3.org/2000/svg"><path fill-rule="evenodd" clip-rule="evenodd" d="M7.333 4H4v3.333h3.333V4zM4 3H3v5.333h5.333V3H4zm1 2h1.333v1.333H5V5zm1.333 6.667H5V13h1.333v-1.333zM11.667 5H13v1.333h-1.333V5zM4 10.667h3.333V14H4v-3.333zm-1-1h5.333V15H3V9.667zM14 4h-3.333v3.333H14V4zm-3.333-1h-1v5.333H15V3h-4.333zM11 9.667H9.667V11H11V9.667zm1.333 0H15V11h-1.333v1.333h-1.334V9.667zm0 4v-1.334H11v1.334H9.667V15H11v-1.333h1.333zm0 0V15H14a1 1 0 001-1v-1.667h-1.333v1.334h-1.334z" fill="#0D131A" fill-opacity=".8"/></svg><svg width="18" height="18" fill="none" x="274" y="330" xmlns="http://www.w3.org/2000/svg"><path d="M9.436 5.775l-.354-.353-.354.353.354.354.354-.354zm2.91-2.907l.353-.354-.353-.353-.353.353.353.354zm0 5.815l-.353.354.353.353.353-.353-.353-.354zm2.91-2.908l.354.354.354-.354-.354-.353-.354.353zm-7.25-2.338h.5v-.5h-.5v.5zm-4.38 0v-.5h-.499v.5h.5zm4.38 4.374v.5h.5v-.5h-.5zm-4.38 0h-.499v.5h.5v-.5zm.001 2.211v-.5h-.5v.5h.5zm4.378 0h.5v-.5h-.5v.5zm-4.378 4.374h-.5v.5h.5v-.5zm4.378 0v.5h.5v-.5h-.5zm2.214-4.374v-.5h-.5v.5h.5zm4.378 0h.5v-.5h-.5v.5zm-4.378 4.374h-.5v.5h.5v-.5zm4.378 0v.5h.5v-.5h-.5zM9.789 6.13l2.91-2.907-.706-.708-2.91 2.908.706.707zm2.91 2.2L9.79 5.422l-.707.707 2.91 2.908.707-.708zm2.204-2.907l-2.91 2.907.706.708 2.91-2.908-.706-.707zm-2.91-2.2l2.91 2.907.707-.707-2.91-2.908-.707.708zm-3.988-.285H3.627v1h4.378v-1zm.5 4.874V3.437h-1v4.374h1zm-4.878.5h4.378v-1H3.627v1zm-.5-4.874v4.374h1V3.437h-1zm.5 7.085h4.378v-1H3.627v1zm.5 3.874v-4.374h-1v4.374h1zm3.878-.5H3.627v1h4.378v-1zm-.5-3.874v4.374h1v-4.374h-1zm2.714.5h4.378v-1h-4.378v1zm.5 3.874v-4.374h-1v4.374h1zm3.878-.5h-4.378v1h4.378v-1zm-.5-3.874v4.374h1v-4.374h-1z" fill="#0D131A" fill-opacity=".8"/></svg><svg height="40" width="40" x="240" y="30" xmlns="http://www.w3.org/2000/svg"><mask id="e" fill="#fff"><path d="M0 0h19.76v10.64H0z" fill-rule="evenodd"/></mask><g fill="none" fill-rule="evenodd"><circle cx="20" cy="20" fill="#0085dd" r="20"/><g fill="#fff"><path d="M25.2 17.6V24h-.14c.091.251.14.518.14.8 0 1.146-2.328 2.4-4.8 2.4-3.272 0-5.6-1.254-5.6-2.4 0-.281.049-.548.142-.8H14.8v-6.4z" opacity=".67"/><path d="M6.206 1.789l10.53-3.269-3.268 10.53-10.331 3.07z" mask="url(#e)" stroke="#0085dd" stroke-width=".8" transform="rotate(45 .451 23.391)"/><path d="M28 17.32h.8v7.48H28z"/></g></g></svg><svg width="18" height="18" fill="none" x="292" y="330" xmlns="http://www.w3.org/2000/svg"><path d="M11.228 5.897C10.498 4.346 8.705 3.25 6.61 3.25c-2.744 0-4.969 1.88-4.969 4.2 0 1.117.516 2.132 1.356 2.885.365.325-.21 2.08-.21 2.08s2.106-1.01 2.449-.927c.32.078.935.151 1.576.177.23.01.708 0 .834 0" stroke="#0D131A" stroke-opacity=".8" stroke-linecap="round" stroke-linejoin="round"/><path clip-rule="evenodd" d="M16.54 10.143c0-2.116-2.061-3.828-4.605-3.828-2.543 0-4.605 1.712-4.605 3.828 0 2.108 2.062 3.82 4.605 3.828a5.723 5.723 0 001.51-.22c.036-.01.033-.01.126-.028.093-.018.173.027.243.064l.995.589c.046.024.073.037.11.037.081 0 .15-.069.148-.148.002-.043-.012-.078-.023-.114-.01-.037-.134-.486-.198-.769a.504.504 0 01-.014-.14c0-.075.04-.157.124-.228.964-.685 1.585-1.723 1.585-2.87z" stroke="#3D4248" stroke-linejoin="round"/><path fill-rule="evenodd" clip-rule="evenodd" d="M9.798 8.874c0 .343.264.607.572.607a.597.597 0 00.607-.607c0-.307-.263-.571-.607-.571a.582.582 0 00-.572.571zm3.058 0c0 .343.264.607.572.607a.597.597 0 00.607-.607c0-.307-.264-.571-.607-.571a.582.582 0 00-.572.571zM4.46 6.375c0 .343.265.606.573.606a.597.597 0 00.607-.606c0-.308-.264-.572-.607-.572a.582.582 0 00-.572.572zm3.059 0c0 .343.264.606.571.606a.597.597 0 00.608-.606c0-.308-.264-.572-.608-.572a.582.582 0 00-.571.572z" fill="#0D131A" fill-opacity=".8"/></svg><svg width="18" height="18" fill="none" x="310" y="330" xmlns="http://www.w3.org/2000/svg"><path clip-rule="evenodd" d="M12.438 13.95v-1.23c0-.641-.427-.905-2.652-1.81C7.56 10.005 8.36 8.383 8.36 8.383c.88-1.405.986-2.324.693-4.08-.189-1.13-1.564-1.463-1.833-1.491a2.484 2.484 0 00-.652 0c-.262.028-1.645.361-1.833 1.49-.293 1.757-.187 2.676.693 4.081 0 0 .8 1.622-1.426 2.527S1.35 12.083 1.35 12.72v1.23h11.088z" stroke="#0D131A" stroke-opacity=".8"/><path d="M14.553 13.95h2.402v-.932c0-.486-.323-.686-2.01-1.373-1.687-.686-1.081-1.915-1.081-1.915.667-1.065.748-1.762.525-3.094-.143-.856-1.185-1.108-1.39-1.13a1.883 1.883 0 00-.494 0c-.198.022-1.246.274-1.389 1.13-.222 1.332-.141 2.029.525 3.094" stroke="#0D131A" stroke-opacity=".8"/></svg><svg width="18" height="18" fill="none" x="328" y="330" xmlns="http://www.w3.org/2000/svg"><path d="M15.5 3L3 7l3.5 3.5 3-1.5L8 12l4 4 3.5-13z" stroke="#0D131A" stroke-opacity=".8"/></svg><svg width="18" height="18" fill="none" x="360" xmlns="http://www.w3.org/2000/svg"><rect x="3.281" y="2.676" width="10.703" height="10.692" rx="5.346" stroke="#0D131A" stroke-opacity=".8"/><rect x="7.66" y="7.05" width="8.757" height="8.748" rx="4.374" fill="#fff"/><rect x="9.605" y="8.994" width="4.865" height="4.86" rx="2.43" fill="#fff" stroke="#0D131A" stroke-opacity=".8"/></svg><svg width="19" height="18" fill="none" x="200" y="330" xmlns="http://www.w3.org/2000/svg"><path fill-rule="evenodd" clip-rule="evenodd" d="M15.67 6.326a3.571 3.571 0 00-4.768-.556l-.225-.257a4.874 4.874 0 00-.471-.472 4.571 4.571 0 11-.667 6.642l-2.46-2.72a.5.5 0 11.742-.67l2.463 2.723.006.006a3.571 3.571 0 105.38-4.696zM3.677 5.987a3.571 3.571 0 004.254 5.71l.664.761a4.572 4.572 0 11.87-6.79l2.46 2.72a.5.5 0 11-.74.672L8.72 6.336l-.006-.006a3.571 3.571 0 00-5.038-.343z" fill="#0D131A" fill-opacity=".8"/></svg><svg width="18" height="18" fill="none" x="360" y="18" xmlns="http://www.w3.org/2000/svg"><path fill-rule="evenodd" clip-rule="evenodd" d="M14 4H4v10h4.758c.253.378.561.715.913 1H4a1 1 0 01-1-1V4a1 1 0 011-1h10a1 1 0 011 1v3.758a4.485 4.485 0 00-1-.502V4zm1 7.5a2.5 2.5 0 11-5 0 2.5 2.5 0 015 0zm1 0c0 .786-.26 1.512-.697 2.096l1.55 1.55-.707.708-1.55-1.55A3.5 3.5 0 1116 11.5zm-9.5-4a1 1 0 100-2 1 1 0 000 2z" fill="#0D131A" fill-opacity=".8"/></svg><svg width="19" height="18" fill="none" x="219" y="330" xmlns="http://www.w3.org/2000/svg"><path d="M11.153 14.71H2.5v-1.39c0-.72.502-1.022 3.124-2.045s1.68-2.854 1.68-2.854c-1.036-1.588-1.162-2.626-.816-4.61.222-1.277 1.85-1.754 2.159-1.787a3.05 3.05 0 01.768 0c.317.033 1.937.51 2.16 1.786.345 1.985.219 3.023-.817 4.61 0 0-.249.485-.135 1.094" stroke="#0D131A" stroke-opacity=".8"/><path d="M16.83 12.809h-5.59l1.766 1.765m-2.643-3.499h5.591L14.187 9.31" stroke="#0D131A" stroke-opacity=".8" stroke-linejoin="round"/></svg><svg width="40" height="40" x="280" y="30" xmlns="http://www.w3.org/2000/svg"><g fill="none" fill-rule="evenodd"><circle fill="#BC9B52" cx="20" cy="20" r="20"/><path d="M17.582 13l2.452 3.327L22.665 13h3.15l-4.443 5.143H26V20.5l-4.801-.001v2.097H26V25h-4.801l.001 3h-2.4l-.001-3H14v-2.404h4.799v-2.097L14 20.5v-2.357h4.6l.033-.044L14.5 13h3.082z" fill="#FFF"/></g></svg><svg width="18" height="18" fill="none" x="360" y="36" xmlns="http://www.w3.org/2000/svg"><path d="M9.46 11.521l-.353.354.354.354.353-.354-.353-.354zm1.965-1.964l.354-.354-.354-.353-.353.353.353.354zm-3.929 0l.354-.354-.354-.353-.353.353.353.354zm-.07.07l-.354-.353-.354.353.354.354.353-.354zm2 2l-.354.354.353-.354zm.035.036l-.354.353.354.354.353-.354-.353-.353zm.035-.036l.354.354-.354-.354zm2-2l.354.354.353-.354-.353-.353-.354.353zM9.511 6.671h.5v-.5h-.5v.5zm0 4.592v.5h.5v-.5h-.5zm-.1-4.592v-.5h-.5v.5h.5zm0 4.592h-.5v.5h.5v-.5zm.403.612L11.78 9.91l-.707-.707-1.965 1.965.707.707zM7.143 9.91l1.964 1.965.707-.707L7.85 9.203l-.707.707zm.636.071l.07-.07-.706-.708-.071.07.707.708zm2 1.293l-2-2-.707.707 2 2 .707-.707zm.035.035l-.035-.035-.707.707.035.035.707-.707zm-.671-.035l-.036.035.707.707.036-.035-.707-.707zm2-2l-2 2 .707.707 2-2-.707-.707zm-.071.636l.07.071.708-.707-.071-.07-.707.706zM9.01 6.671v4.592h1V6.671h-1zm.4.5h.1v-1h-.1v1zm.5 4.092V6.671h-1v4.592h1zm-.4-.5h-.1v1h.1v-1z" fill="#0D131A" fill-opacity=".8"/><path d="M3.5 5a1 1 0 011-1h10a1 1 0 011 1v8a1 1 0 01-1 1h-10a1 1 0 01-1-1v-1.586a1 1 0 00-.293-.707L1.663 9.163a.2.2 0 01.021-.301L3.1 7.8a1 1 0 00.4-.8V5z" stroke="#0D131A" stroke-opacity=".8"/></svg><svg width="18" height="18" fill="none" x="360" y="54" xmlns="http://www.w3.org/2000/svg"><path d="M12.5 4v.5h.5V4h-.5zm-10 0H2v.5h.5V4zm10-.1h.5v-.5h-.5v.5zm-10 0v-.5H2v.5h.5zM13.69 13l-.364-.342-.33.353.341.342.354-.354zm1.88 1.88l.354.353.354-.354-.354-.353-.353.353zm-.14.14l-.354.354.353.354.354-.354-.354-.353zm-1.88-1.88l.353-.353-.342-.342-.353.33.341.366zM2.5 14H2v.5h.5V14zM7 14v.5h.5V14H7zm-4.5-.1v-.5H2v.5h.5zm4.5 0h.5v-.5H7v.5zM7 9v.5h.5V9H7zM2.5 9H2v.5h.5V9zM7 8.9h.5v-.5H7v.5zm-4.5 0v-.5H2v.5h.5zm10-5.4h-10v1h10v-1zm-.5.4V4h1v-.1h-1zm-9.5.5h10v-1h-10v1zM3 4v-.1H2V4h1zm8.5 3.45a3.5 3.5 0 00-3.5 3.5h1a2.5 2.5 0 012.5-2.5v-1zm3.5 3.5a3.5 3.5 0 00-3.5-3.5v1a2.5 2.5 0 012.5 2.5h1zm-.944 2.391A3.49 3.49 0 0015 10.95h-1c0 .66-.256 1.26-.674 1.708l.73.683zm1.868 1.185l-1.88-1.88-.707.707 1.88 1.88.707-.707zm-.141.848l.141-.141-.707-.707-.141.141.707.707zm-2.587-1.88l1.88 1.88.707-.707-1.88-1.88-.707.707zm-1.696.956a3.49 3.49 0 002.391-.944l-.683-.73a2.49 2.49 0 01-1.708.674v1zM8 10.95a3.5 3.5 0 003.5 3.5v-1a2.5 2.5 0 01-2.5-2.5H8zM2.5 14.5H7v-1H2.5v1zm-.5-.6v.1h1v-.1H2zm5-.5H2.5v1H7v-1zm.5.6v-.1h-1v.1h1zM7 8.5H2.5v1H7v-1zm-.5.4V9h1v-.1h-1zm-4 .5H7v-1H2.5v1zM3 9v-.1H2V9h1z" fill="#0D131A" fill-opacity=".8"/></svg><svg width="18" height="18" fill="none" x="360" y="72" xmlns="http://www.w3.org/2000/svg"><rect x="6" y="2" width="6" height="8" rx="3" stroke="#3D4248"/><rect x="4" y="6" width="10" height="8" rx="1" fill="#fff" stroke="#3D4248"/></svg><svg width="18" height="18" fill="none" x="360" y="90" xmlns="http://www.w3.org/2000/svg"><rect x="4" y="3" width="10" height="10" rx="1" fill="#fff" stroke="#0D131A" stroke-opacity=".8"/><circle cx="14.036" cy="11.938" r="3.063" fill="#fff" stroke="#0D131A" stroke-opacity=".8" stroke-linejoin="round"/><path d="M12.286 14.563l3.5-5.25" stroke="#0D131A" stroke-opacity=".8"/></svg><svg width="40" height="40" x="320" y="30" xmlns="http://www.w3.org/2000/svg"><g fill="none" fill-rule="evenodd"><circle fill="#EC6750" cx="20" cy="20" r="20"/><path fill="#FFF" d="M20 24.361l5.253 3.139-1.39-5.92 4.627-4.5h-6.102L20 11.5l-2.388 5.58h-6.06l4.585 4.5-1.39 5.92z"/></g></svg><svg width="18" height="18" fill="none" x="360" y="108" xmlns="http://www.w3.org/2000/svg"><path clip-rule="evenodd" d="M12.438 13.95v-1.23c0-.641-.427-.905-2.653-1.81C7.56 10.005 8.36 8.383 8.36 8.383c.88-1.405.986-2.324.692-4.08C8.864 3.172 7.49 2.84 7.22 2.811a2.484 2.484 0 00-.653 0c-.261.028-1.644.361-1.832 1.49-.293 1.757-.187 2.676.693 4.081 0 0 .8 1.622-1.426 2.527S1.35 12.083 1.35 12.72v1.23h11.087z" stroke="#0D131A" stroke-opacity=".8"/><path d="M14.553 13.95h2.402v-.932c0-.486-.323-.686-2.01-1.373-1.687-.686-1.081-1.915-1.081-1.915.667-1.065.747-1.762.525-3.094-.143-.856-1.185-1.108-1.39-1.13a1.883 1.883 0 00-.494 0c-.198.022-1.246.274-1.39 1.13-.221 1.332-.14 2.029.526 3.094" stroke="#0D131A" stroke-opacity=".8"/></svg><svg width="18" height="18" fill="none" x="360" y="126" xmlns="http://www.w3.org/2000/svg"><path d="M7.818 10.123l-.347-.36-.36.347.346.36.36-.347zm.03.032l.354-.354-.353.354zm.006-.067l.36-.347-.347-.36-.36.347.347.36zm.03.031l.354.354.353-.354-.353-.353-.354.353zm-.018.018l-.353-.354.707.708-.354-.354zm.018-.018l.354-.353-.354-.354-.353.354.353.353zm4.278 4.28l.354-.354-.354.353zm.026.025l.204.457.663-.297-.514-.513-.353.353zm-.033.015l-.204-.457.204.457zm-4.325.347l-.483-.128-.129.483.484.128.128-.483zm.013-.048l.128-.484-.483-.128-.129.483.484.129zm4.258-.33l.202.458.668-.295-.516-.516-.354.353zm-2.644-3.57l-.5-.008-.01.5.5.009.01-.5zm.045.001v.5h.5v-.5h-.5zm-.044-.05l.01-.5-.5-.01-.01.5.5.01zm.044 0v-.5.5zm6.05 0v.5-.5zm.037 0l.467.18.26-.679h-.727v.5zm-.013.035l.467.178-.467-.178zm-2.814 3.304l-.433.25.252.433.432-.251-.251-.432zm-.025-.044l-.251-.432-.433.251.251.432.433-.25zm2.78-3.244l.465.181.265-.681h-.73v.5zm-6.015 0h-.5v.5h.5v-.5zm0-.026h.5-1 .5zM7.164 8.457l.006-.5-.5-.006-.006.5.5.006zm0 .044l-.5-.006v.003l.5.003zm.05-.044l.5.006.006-.5-.5-.006-.006.5zm0 .044l-.5-.006V8.5l.5.002zm0 0l-.5-.002v.003h.5zm0 6.052h.5-.5zm0 .036l-.18.467.68.26v-.727h-.5zm-.035-.013l-.178.467.178-.467zm-3.303-2.814l-.251-.433-.433.251.251.433.433-.251zm.043-.025l.432-.252-.25-.432-.433.251.25.433zm3.244 2.78l-.181.465.681.265v-.73h-.5zm0-6.016l-.5-.003v.003h.5zm.716-1.684l.36-.347-.346-.36-.36.347.346.36zm-.031.031l.353.354-.353-.354zm.066.005l.347.36.36-.347-.347-.36-.36.347zm-.031.03l.335.371.01-.008.009-.01-.354-.353zm0 0l-.335-.37-.01.008-.009.009.354.353zm-4.279 4.279l.354.353-.354-.353zm-.026.025l-.456.205.297.662.513-.513-.354-.354zm-.014-.033l.456-.204-.456.204zM3.217 6.83l.128-.483-.483-.128-.129.483.484.128zm.048.013l.483.128.128-.483-.483-.128-.128.483zm.33 4.259l-.458.201.295.669.516-.517-.353-.353zm11.844-5.253l.456-.204-.456.204zm-.015-.033l.457-.204-.297-.663-.513.514.353.353zm.362 4.359l-.128.483.483.128.128-.483-.483-.128zm-.048-.013l-.484-.128-.128.483.484.128.128-.483zm-.33-4.259l.458-.202-.295-.668-.516.517.353.353zm-4.253 4.253L10.8 9.8l.354.354zm-.032.031l-.36.347.347.36.36-.347-.347-.36zm-.034-.036l-.347-.36-.36.347.346.36.36-.347zm.03-.03l.354-.354-.354-.354-.353.354.354.354zm.017.015l-.354.354.707-.707-.354.353zm-.016-.015l-.354-.354-.354.353.354.354.354-.354zm4.278-4.279l.354.354-.354-.354zm-3.573-3.414l.178-.467-.178.467zm-.034-.013l.178-.467-.678-.26v.727h.5zm3.337 2.827l.251.432.432-.25-.25-.433-.433.251zm-.043.025l-.433.251.251.433.433-.252-.251-.432zm-3.245-2.78l.182-.465-.681-.265v.73h.5zm0 6.015h-.5.5zm0 .044l-.01.5.5.01.01-.5-.5-.01zm-.05 0l-.5-.01-.01.5.5.01.01-.5zm0-.044h-.5.5zm0-6.05h-.5.5zm-4.888.144l-.201-.458-.669.295.517.516.353-.353zm4.259-.33l-.128.483.483.128.128-.483-.483-.128zm.013-.048l.483.128.128-.483-.483-.129-.128.484zm-4.325.347l-.204-.457.204.457zm-.033.015l-.205-.457-.662.297.513.513.354-.353zm.025.025l-.353.354.353-.354zm4.279 4.28l-.354.353.354-.354zm.03.03l-.36.347.347.36.36-.346-.347-.36zm.036-.034l.347.36.36-.347-.347-.36-.36.347zm-.031-.032L10.8 7.2l.354-.353zm-7.668-.685l-.466-.182-.265.682h.731v-.5zm2.78-3.245l.25.433.433-.252-.251-.432-.432.251zm-.026-.043l.433-.251-.251-.432-.433.25.251.433zM3.427 6.179l.467.178-.467-.178zm-.013.034l-.467-.179-.26.679h.727v-.5zm.037 0v.5-.5zm6.05 0v.5-.5zm.044 0l-.01.5.5.01.01-.5-.5-.01zm0-.05l.5.01.01-.5-.5-.01-.01.5zm-.043 0v.5-.5zM7.457 10.47l.038.038.707-.707a1.81 1.81 0 01-.024-.025l-.72.694zm.05-.742l-.036.035.693.72.036-.035-.693-.72zm.73.038a1.77 1.77 0 01-.023-.025l-.72.694.037.038.707-.707zm-.017.725l.018-.018-.707-.707-.018.017.707.708zm-.69-.725l-.017.017.707.708.018-.018-.707-.707zm4.986 4.279l-4.278-4.28-.708.708 4.279 4.279.707-.707zm.025.026l-.025-.026-.707.707.025.026.707-.707zm-.182.824l.033-.014-.408-.913-.034.014.409.913zm-2.857.608a6.979 6.979 0 002.857-.608l-.409-.912a5.977 5.977 0 01-2.448.52v1zm-1.8-.234a7.01 7.01 0 001.8.234v-1a6.04 6.04 0 01-1.544-.2l-.256.966zm-.343-.66l-.012.049.966.256.013-.048-.967-.257zm2.143-.156a5.96 5.96 0 01-1.531-.199l-.257.967a6.96 6.96 0 001.788.232v-1zm2.397-.502a5.928 5.928 0 01-2.397.502v1a6.94 6.94 0 002.8-.587l-.402-.915zm-4.404-3.443l4.253 4.254.707-.707L8.202 9.8l-.707.707zm1.952.83l.055.001v-1h-.036l-.019 1zm-.49-.558v.05l1 .018v-.05l-1-.018zm.545-.49l-.035-.001-.019 1h.054v-1zm0 0v1-1zm6.05 0h-6.05v1h6.05v-1zm.037 0h-.036v1h.036v-1zm.454.713l.013-.034-.934-.358-.013.034.934.357zm-3.03 3.557a7.025 7.025 0 003.03-3.558l-.934-.357a6.024 6.024 0 01-2.598 3.05l.502.865zm-.709-.225l.025.044.865-.502-.025-.044-.865.502zm2.746-3.676a5.975 5.975 0 01-2.564 2.993l.502.865a6.974 6.974 0 002.994-3.496l-.932-.362zm-5.548.68h6.014v-1H9.502v1zm.5-.5v-.025h-1v.025h1zm-1-.025v.025h1v-.025h-1zM6.664 8.451v.044l1 .012v-.045l-1-.011zm.556-.494h-.05l-.012 1h.05l.012-1zm.494.55v-.044l-1-.012v.044l1 .012zm0-.003l-1-.005 1 .005zm0 6.049V8.502h-1v6.05h1zm0 .036v-.036h-1v.036h1zM7 15.043l.034.013.357-.934-.034-.013-.357.934zm-3.558-3.03A7.024 7.024 0 007 15.043l.357-.934a6.024 6.024 0 01-3.05-2.598l-.865.502zm.225-.709l-.043.025.502.865.043-.025-.502-.865zm3.677 2.746a5.975 5.975 0 01-2.994-2.565l-.864.503a6.974 6.974 0 003.495 2.994l.363-.932zm-.681-5.549v6.015h1V8.501h-1zm0-.003l1 .006-1-.006zm.869-2.041a2.862 2.862 0 00-.039.037l.707.708a1.87 1.87 0 01.025-.025l-.693-.72zm.741.05L8.24 6.47l-.72.694.034.036.72-.694zm-.037.73l.024-.024-.694-.72a2.822 2.822 0 00-.038.037l.708.707zm-.019.017l-.67-.742.67.742zm-4.26 4.261l4.279-4.278-.708-.707-4.278 4.278.707.707zm-.026.026l.026-.026-.707-.707-.026.026.707.707zm-.825-.183l.015.034.913-.409-.015-.033-.913.409zM2.5 8.502c0 1.017.217 1.984.607 2.857l.913-.408a5.979 5.979 0 01-.52-2.449h-1zm.233-1.8A7.011 7.011 0 002.5 8.5h1c0-.534.07-1.051.2-1.544L2.733 6.7zm.66-.342l-.048-.013-.257.966.049.013.256-.966zM3.55 8.5c0-.53.069-1.043.198-1.53l-.966-.257A6.961 6.961 0 002.55 8.5h1zm.502 2.398A5.93 5.93 0 013.55 8.5h-1c0 .996.21 1.944.587 2.801l.915-.403zm3.442-4.405l-4.253 4.253.707.707 4.253-4.252-.707-.708zm8.401-.85l-.014-.033-.913.409.014.033.913-.409zm.608 2.858a6.978 6.978 0 00-.608-2.858l-.912.409c.334.747.52 1.575.52 2.449h1zm-.234 1.8a7.011 7.011 0 00.234-1.8h-1c0 .534-.07 1.051-.2 1.543l.966.257zm-.66.342l.049.013.256-.967-.048-.012-.256.966zm-.156-2.142c0 .53-.07 1.043-.199 1.53l.967.257c.151-.57.232-1.17.232-1.787h-1zm-.502-2.398a5.93 5.93 0 01.502 2.398h1a6.93 6.93 0 00-.587-2.802l-.915.404zm-3.443 4.404l4.254-4.252-.707-.707L10.8 9.8l.707.707zm-.038.038a3.43 3.43 0 00.038-.038l-.707-.707a1.664 1.664 0 01-.025.025l.694.72zm-.742-.05l.035.037.72-.694-.034-.036-.72.694zm.038-.73a1.565 1.565 0 01-.024.024l.693.72.038-.037-.707-.707zm.723.016l-.016-.016-.707.707.016.016.707-.707zm-.723.691l.016.016.707-.707-.016-.016-.707.707zm4.279-4.986l-4.279 4.279.707.707 4.279-4.278-.707-.708zm.026-.025l-.026.025.707.708.026-.026-.707-.707zM12.003 1.96l-.034-.013-.357.934.034.013.357-.934zm3.557 3.03a7.024 7.024 0 00-3.557-3.03l-.357.934a6.024 6.024 0 013.05 2.598l.864-.502zm-.224.708l.043-.025-.502-.864-.043.025.502.864zm-3.677-2.745a5.975 5.975 0 012.993 2.564l.865-.502a6.974 6.974 0 00-3.495-2.994l-.363.932zM12.34 8.5V2.487h-1V8.5h1zm0 .054V8.5h-1v.035l1 .019zm-.56.49h.05l.019-1h-.05l-.019 1zm-.49-.544v.034l1 .019V8.5h-1zm0-6.05V8.5h1V2.45h-1zm0-.037v.036h1v-.036h-1zm-4.186.638a5.929 5.929 0 012.398-.502v-1c-.996 0-1.944.21-2.801.587l.403.915zm2.398-.502c.53 0 1.043.069 1.53.198l.257-.966a6.96 6.96 0 00-1.787-.232v1zm2.142-.157l.013-.048-.967-.257-.012.049.966.256zm-.342-.66a7.01 7.01 0 00-1.8-.233v1c.534 0 1.051.07 1.543.2l.257-.967zm-1.8-.233a6.978 6.978 0 00-2.857.607l.408.913a5.978 5.978 0 012.449-.52v-1zm-2.857.607l-.034.015.409.913.033-.015-.408-.913zm-.183.825l.026.026.707-.707-.026-.026-.707.707zm.026.026l4.278 4.279.707-.707-4.278-4.28-.707.708zm4.278 4.279l.024.024.72-.693a3.012 3.012 0 00-.037-.038l-.707.707zm.73.038l.037-.035-.694-.72-.036.034.694.72zm.05-.742a3.124 3.124 0 00-.038-.039l-.707.707.025.025.72-.693zm-.038-.039L7.256 2.241l-.707.707L10.8 7.201l.707-.707zm-7.555-.15A5.975 5.975 0 016.518 3.35l-.503-.865A6.975 6.975 0 003.021 5.98l.932.363zM6.7 2.667l-.025-.043-.865.502.025.043.865-.502zm-.709-.224A7.024 7.024 0 002.96 6l.934.357a6.024 6.024 0 012.599-3.05l-.503-.864zM2.96 6l-.013.034.934.357.013-.034L2.96 6zm.454.713h.037v-1h-.037v1zm.037 0H9.5v-1H3.45v1zm6.05 0h.034l.019-1h-.052v1zm.544-.49v-.05l-1-.019v.05l1 .019zm-.49-.56h-.053v1h.034l.019-1zm-.053 0H3.487v1h6.015v-1z" fill="#0D131A" fill-opacity=".8"/></svg><svg width="18" height="18" fill="none" x="360" y="144" xmlns="http://www.w3.org/2000/svg"><path clip-rule="evenodd" d="M4 14.892V3h10.995L15 15l-11-.108z" stroke="#0D131A" stroke-opacity=".8" stroke-linejoin="round"/><path d="M6.798 9.313l1.93 1.874 3.377-3.28" stroke="#0D131A" stroke-opacity=".8"/><path fill="#fff" stroke="#3D4248" stroke-linejoin="round" d="M7 2h5v2H7z"/></svg><svg width="18" height="18" fill="none" x="360" y="162" xmlns="http://www.w3.org/2000/svg"><path stroke="#0D131A" stroke-opacity=".8" stroke-linejoin="round" d="M4 3h11v12H4z"/><path d="M7 11.04h5M7 7.638h5" stroke="#0D131A" stroke-opacity=".8"/><path fill="#fff" stroke="#3D4248" stroke-linejoin="round" d="M7 2h5v2H7z"/></svg><svg width="40" height="40" x="240" y="70" xmlns="http://www.w3.org/2000/svg"><g fill="none" fill-rule="evenodd"><circle fill="#5DBC52" cx="20" cy="20" r="20"/><g fill="#FFF"><path d="M17.66 20s.018 1.81 2.352 1.81c2.178 0 2.31-1.577 2.318-1.787V20s.015 1.81 2.348 1.81c.569 0 .999-.139 1.324-.348L26 26a1 1 0 01-1 1H15a1 1 0 01-1-1l-.001-4.553c.328.218.764.363 1.346.363 2.333 0 2.316-1.81 2.316-1.81z" opacity=".67"/><path d="M27 18.667L25.833 14H14.167L13 18.667S13 21 15.333 21c2.334 0 2.334-2.333 2.334-2.333S17.667 21 20 21s2.333-2.333 2.333-2.333 0 2.333 2.334 2.333C27 21 27 18.667 27 18.667z"/></g></g></svg><svg width="18" height="18" fill="none" x="360" y="180" xmlns="http://www.w3.org/2000/svg"><path clip-rule="evenodd" d="M12.438 13.95v-1.23c0-.641-.427-.905-2.652-1.81C7.56 10.005 8.36 8.383 8.36 8.383c.88-1.405.986-2.324.693-4.08-.189-1.13-1.564-1.463-1.833-1.491a2.484 2.484 0 00-.652 0c-.262.028-1.645.361-1.833 1.49-.293 1.757-.187 2.676.693 4.081 0 0 .8 1.622-1.426 2.527S1.35 12.083 1.35 12.72v1.23h11.088z" stroke="#0D131A" stroke-opacity=".8"/><path d="M14.553 13.95h2.402v-.932c0-.486-.323-.686-2.01-1.373-1.687-.686-1.081-1.915-1.081-1.915.667-1.065.748-1.762.525-3.094-.143-.856-1.185-1.108-1.39-1.13a1.883 1.883 0 00-.494 0c-.198.022-1.246.274-1.389 1.13-.222 1.332-.141 2.029.525 3.094" stroke="#0D131A" stroke-opacity=".8"/></svg><svg width="18" height="18" fill="none" x="360" y="198" xmlns="http://www.w3.org/2000/svg"><path d="M7.818 10.123l-.347-.36-.36.347.346.36.36-.347zm.03.032l.354-.354-.353.354zm.006-.067l.36-.347-.347-.36-.36.347.347.36zm.03.031l.354.354.353-.354-.353-.353-.354.353zm-.018.018l-.353-.354.707.708-.354-.354zm.018-.018l.354-.353-.354-.354-.353.354.353.353zm4.278 4.28l.354-.354-.354.353zm.026.025l.204.457.663-.297-.514-.513-.353.353zm-.033.015l-.204-.457.204.457zm-4.325.347l-.483-.128-.129.483.484.128.128-.483zm.013-.048l.128-.484-.483-.128-.129.483.484.129zm4.258-.33l.202.458.668-.295-.516-.516-.354.353zm-2.644-3.57l-.5-.008-.01.5.5.009.01-.5zm.045.001v.5h.5v-.5h-.5zm-.044-.05l.01-.5-.5-.01-.01.5.5.01zm.044 0v-.5.5zm6.05 0v.5-.5zm.037 0l.467.18.26-.679h-.727v.5zm-.013.035l.467.178-.467-.178zm-2.814 3.304l-.433.25.252.433.432-.251-.251-.432zm-.025-.044l-.251-.432-.433.251.251.432.433-.25zm2.78-3.244l.465.181.265-.681h-.73v.5zm-6.015 0h-.5v.5h.5v-.5zm0-.026h.5-1 .5zM7.164 8.457l.006-.5-.5-.006-.006.5.5.006zm0 .044l-.5-.006v.003l.5.003zm.05-.044l.5.006.006-.5-.5-.006-.006.5zm0 .044l-.5-.006V8.5l.5.002zm0 0l-.5-.002v.003h.5zm0 6.052h.5-.5zm0 .036l-.18.467.68.26v-.727h-.5zm-.035-.013l-.178.467.178-.467zm-3.303-2.814l-.251-.433-.433.251.251.433.433-.251zm.043-.025l.432-.252-.25-.432-.433.251.25.433zm3.244 2.78l-.181.465.681.265v-.73h-.5zm0-6.016l-.5-.003v.003h.5zm.716-1.684l.36-.347-.346-.36-.36.347.346.36zm-.031.031l.353.354-.353-.354zm.066.005l.347.36.36-.347-.347-.36-.36.347zm-.031.03l.335.371.01-.008.009-.01-.354-.353zm0 0l-.335-.37-.01.008-.009.009.354.353zm-4.279 4.279l.354.353-.354-.353zm-.026.025l-.456.205.297.662.513-.513-.354-.354zm-.014-.033l.456-.204-.456.204zM3.217 6.83l.128-.483-.483-.128-.129.483.484.128zm.048.013l.483.128.128-.483-.483-.128-.128.483zm.33 4.259l-.458.201.295.669.516-.517-.353-.353zm11.844-5.253l.456-.204-.456.204zm-.015-.033l.457-.204-.297-.663-.513.514.353.353zm.362 4.359l-.128.483.483.128.128-.483-.483-.128zm-.048-.013l-.484-.128-.128.483.484.128.128-.483zm-.33-4.259l.458-.202-.295-.668-.516.517.353.353zm-4.253 4.253L10.8 9.8l.354.354zm-.032.031l-.36.347.347.36.36-.347-.347-.36zm-.034-.036l-.347-.36-.36.347.346.36.36-.347zm.03-.03l.354-.354-.354-.354-.353.354.354.354zm.017.015l-.354.354.707-.707-.354.353zm-.016-.015l-.354-.354-.354.353.354.354.354-.354zm4.278-4.279l.354.354-.354-.354zm-3.573-3.414l.178-.467-.178.467zm-.034-.013l.178-.467-.678-.26v.727h.5zm3.337 2.827l.251.432.432-.25-.25-.433-.433.251zm-.043.025l-.433.251.251.433.433-.252-.251-.432zm-3.245-2.78l.182-.465-.681-.265v.73h.5zm0 6.015h-.5.5zm0 .044l-.01.5.5.01.01-.5-.5-.01zm-.05 0l-.5-.01-.01.5.5.01.01-.5zm0-.044h-.5.5zm0-6.05h-.5.5zm-4.888.144l-.201-.458-.669.295.517.516.353-.353zm4.259-.33l-.128.483.483.128.128-.483-.483-.128zm.013-.048l.483.128.128-.483-.483-.129-.128.484zm-4.325.347l-.204-.457.204.457zm-.033.015l-.205-.457-.662.297.513.513.354-.353zm.025.025l-.353.354.353-.354zm4.279 4.28l-.354.353.354-.354zm.03.03l-.36.347.347.36.36-.346-.347-.36zm.036-.034l.347.36.36-.347-.347-.36-.36.347zm-.031-.032L10.8 7.2l.354-.353zm-7.668-.685l-.466-.182-.265.682h.731v-.5zm2.78-3.245l.25.433.433-.252-.251-.432-.432.251zm-.026-.043l.433-.251-.251-.432-.433.25.251.433zM3.427 6.179l.467.178-.467-.178zm-.013.034l-.467-.179-.26.679h.727v-.5zm.037 0v.5-.5zm6.05 0v.5-.5zm.044 0l-.01.5.5.01.01-.5-.5-.01zm0-.05l.5.01.01-.5-.5-.01-.01.5zm-.043 0v.5-.5zM7.457 10.47l.038.038.707-.707a1.81 1.81 0 01-.024-.025l-.72.694zm.05-.742l-.036.035.693.72.036-.035-.693-.72zm.73.038a1.77 1.77 0 01-.023-.025l-.72.694.037.038.707-.707zm-.017.725l.018-.018-.707-.707-.018.017.707.708zm-.69-.725l-.017.017.707.708.018-.018-.707-.707zm4.986 4.279l-4.278-4.28-.708.708 4.279 4.279.707-.707zm.025.026l-.025-.026-.707.707.025.026.707-.707zm-.182.824l.033-.014-.408-.913-.034.014.409.913zm-2.857.608a6.979 6.979 0 002.857-.608l-.409-.912a5.977 5.977 0 01-2.448.52v1zm-1.8-.234a7.01 7.01 0 001.8.234v-1a6.04 6.04 0 01-1.544-.2l-.256.966zm-.343-.66l-.012.049.966.256.013-.048-.967-.257zm2.143-.156a5.96 5.96 0 01-1.531-.199l-.257.967a6.96 6.96 0 001.788.232v-1zm2.397-.502a5.928 5.928 0 01-2.397.502v1a6.94 6.94 0 002.8-.587l-.402-.915zm-4.404-3.443l4.253 4.254.707-.707L8.202 9.8l-.707.707zm1.952.83l.055.001v-1h-.036l-.019 1zm-.49-.558v.05l1 .018v-.05l-1-.018zm.545-.49l-.035-.001-.019 1h.054v-1zm0 0v1-1zm6.05 0h-6.05v1h6.05v-1zm.037 0h-.036v1h.036v-1zm.454.713l.013-.034-.934-.358-.013.034.934.357zm-3.03 3.557a7.025 7.025 0 003.03-3.558l-.934-.357a6.024 6.024 0 01-2.598 3.05l.502.865zm-.709-.225l.025.044.865-.502-.025-.044-.865.502zm2.746-3.676a5.975 5.975 0 01-2.564 2.993l.502.865a6.974 6.974 0 002.994-3.496l-.932-.362zm-5.548.68h6.014v-1H9.502v1zm.5-.5v-.025h-1v.025h1zm-1-.025v.025h1v-.025h-1zM6.664 8.451v.044l1 .012v-.045l-1-.011zm.556-.494h-.05l-.012 1h.05l.012-1zm.494.55v-.044l-1-.012v.044l1 .012zm0-.003l-1-.005 1 .005zm0 6.049V8.502h-1v6.05h1zm0 .036v-.036h-1v.036h1zM7 15.043l.034.013.357-.934-.034-.013-.357.934zm-3.558-3.03A7.024 7.024 0 007 15.043l.357-.934a6.024 6.024 0 01-3.05-2.598l-.865.502zm.225-.709l-.043.025.502.865.043-.025-.502-.865zm3.677 2.746a5.975 5.975 0 01-2.994-2.565l-.864.503a6.974 6.974 0 003.495 2.994l.363-.932zm-.681-5.549v6.015h1V8.501h-1zm0-.003l1 .006-1-.006zm.869-2.041a2.862 2.862 0 00-.039.037l.707.708a1.87 1.87 0 01.025-.025l-.693-.72zm.741.05L8.24 6.47l-.72.694.034.036.72-.694zm-.037.73l.024-.024-.694-.72a2.822 2.822 0 00-.038.037l.708.707zm-.019.017l-.67-.742.67.742zm-4.26 4.261l4.279-4.278-.708-.707-4.278 4.278.707.707zm-.026.026l.026-.026-.707-.707-.026.026.707.707zm-.825-.183l.015.034.913-.409-.015-.033-.913.409zM2.5 8.502c0 1.017.217 1.984.607 2.857l.913-.408a5.979 5.979 0 01-.52-2.449h-1zm.233-1.8A7.011 7.011 0 002.5 8.5h1c0-.534.07-1.051.2-1.544L2.733 6.7zm.66-.342l-.048-.013-.257.966.049.013.256-.966zM3.55 8.5c0-.53.069-1.043.198-1.53l-.966-.257A6.961 6.961 0 002.55 8.5h1zm.502 2.398A5.93 5.93 0 013.55 8.5h-1c0 .996.21 1.944.587 2.801l.915-.403zm3.442-4.405l-4.253 4.253.707.707 4.253-4.252-.707-.708zm8.401-.85l-.014-.033-.913.409.014.033.913-.409zm.608 2.858a6.978 6.978 0 00-.608-2.858l-.912.409c.334.747.52 1.575.52 2.449h1zm-.234 1.8a7.011 7.011 0 00.234-1.8h-1c0 .534-.07 1.051-.2 1.543l.966.257zm-.66.342l.049.013.256-.967-.048-.012-.256.966zm-.156-2.142c0 .53-.07 1.043-.199 1.53l.967.257c.151-.57.232-1.17.232-1.787h-1zm-.502-2.398a5.93 5.93 0 01.502 2.398h1a6.93 6.93 0 00-.587-2.802l-.915.404zm-3.443 4.404l4.254-4.252-.707-.707L10.8 9.8l.707.707zm-.038.038a3.43 3.43 0 00.038-.038l-.707-.707a1.664 1.664 0 01-.025.025l.694.72zm-.742-.05l.035.037.72-.694-.034-.036-.72.694zm.038-.73a1.565 1.565 0 01-.024.024l.693.72.038-.037-.707-.707zm.723.016l-.016-.016-.707.707.016.016.707-.707zm-.723.691l.016.016.707-.707-.016-.016-.707.707zm4.279-4.986l-4.279 4.279.707.707 4.279-4.278-.707-.708zm.026-.025l-.026.025.707.708.026-.026-.707-.707zM12.003 1.96l-.034-.013-.357.934.034.013.357-.934zm3.557 3.03a7.024 7.024 0 00-3.557-3.03l-.357.934a6.024 6.024 0 013.05 2.598l.864-.502zm-.224.708l.043-.025-.502-.864-.043.025.502.864zm-3.677-2.745a5.975 5.975 0 012.993 2.564l.865-.502a6.974 6.974 0 00-3.495-2.994l-.363.932zM12.34 8.5V2.487h-1V8.5h1zm0 .054V8.5h-1v.035l1 .019zm-.56.49h.05l.019-1h-.05l-.019 1zm-.49-.544v.034l1 .019V8.5h-1zm0-6.05V8.5h1V2.45h-1zm0-.037v.036h1v-.036h-1zm-4.186.638a5.929 5.929 0 012.398-.502v-1c-.996 0-1.944.21-2.801.587l.403.915zm2.398-.502c.53 0 1.043.069 1.53.198l.257-.966a6.96 6.96 0 00-1.787-.232v1zm2.142-.157l.013-.048-.967-.257-.012.049.966.256zm-.342-.66a7.01 7.01 0 00-1.8-.233v1c.534 0 1.051.07 1.543.2l.257-.967zm-1.8-.233a6.978 6.978 0 00-2.857.607l.408.913a5.978 5.978 0 012.449-.52v-1zm-2.857.607l-.034.015.409.913.033-.015-.408-.913zm-.183.825l.026.026.707-.707-.026-.026-.707.707zm.026.026l4.278 4.279.707-.707-4.278-4.28-.707.708zm4.278 4.279l.024.024.72-.693a3.012 3.012 0 00-.037-.038l-.707.707zm.73.038l.037-.035-.694-.72-.036.034.694.72zm.05-.742a3.124 3.124 0 00-.038-.039l-.707.707.025.025.72-.693zm-.038-.039L7.256 2.241l-.707.707L10.8 7.201l.707-.707zm-7.555-.15A5.975 5.975 0 016.518 3.35l-.503-.865A6.975 6.975 0 003.021 5.98l.932.363zM6.7 2.667l-.025-.043-.865.502.025.043.865-.502zm-.709-.224A7.024 7.024 0 002.96 6l.934.357a6.024 6.024 0 012.599-3.05l-.503-.864zM2.96 6l-.013.034.934.357.013-.034L2.96 6zm.454.713h.037v-1h-.037v1zm.037 0H9.5v-1H3.45v1zm6.05 0h.034l.019-1h-.052v1zm.544-.49v-.05l-1-.019v.05l1 .019zm-.49-.56h-.053v1h.034l.019-1zm-.053 0H3.487v1h6.015v-1z" fill="#0D131A" fill-opacity=".8"/></svg><svg width="18" height="18" fill="none" x="360" y="216" xmlns="http://www.w3.org/2000/svg"><path d="M10.653 14.71H2v-1.39c0-.72.502-1.022 3.124-2.045s1.68-2.854 1.68-2.854c-1.036-1.588-1.162-2.626-.816-4.61.222-1.277 1.85-1.754 2.159-1.787a3.05 3.05 0 01.768 0c.317.033 1.937.51 2.16 1.786.345 1.985.219 3.023-.817 4.61 0 0-.249.485-.135 1.094" stroke="#0D131A" stroke-opacity=".8"/><path d="M16.33 12.809h-5.59l1.766 1.765m-2.642-3.499h5.59L13.688 9.31" stroke="#0D131A" stroke-opacity=".8" stroke-linejoin="round"/></svg><svg width="31" height="26" x="240" y="210" xmlns="http://www.w3.org/2000/svg"><g fill="none" fill-rule="evenodd"><path fill="#0082F0" d="M24.27 6.9a10.746 10.746 0 00-1.945-2.764C20.295 2.034 17.453.68 14.322.323a14.773 14.773 0 00-1.656-.096c-.511 0-1.044.03-1.585.089-3.144.342-6.002 1.69-8.047 3.792a10.757 10.757 0 00-1.955 2.757 9.634 9.634 0 00-1.003 4.277c0 1.909.58 3.79 1.678 5.442a14.96 14.96 0 002.302 2.634v.002l-.378 2.974c-.015.04-.031.08-.04.123-.01.039-.012.079-.016.119-.002.03-.01.06-.01.091 0 .033.008.065.01.098.05.489.458.872.96.872.175 0 .337-.05.478-.131l.014-.008c.02-.012.042-.023.062-.036l.903-.454 2.69-1.352a13.93 13.93 0 002.35.453 14.54 14.54 0 003.243-.009 14.092 14.092 0 003.173-.742 1.752 1.752 0 01-1.192-1.832c-.72.23-1.472.393-2.25.482a12.172 12.172 0 01-2.716.008c-.09-.01-.182-.025-.274-.037a11.976 11.976 0 01-1.78-.373 1.217 1.217 0 00-.37-.057c-.2 0-.392.053-.588.154-.026.014-.05.025-.076.04l-2.21 1.303-.096.057-.003.001c-.047.028-.075.039-.1.039a.15.15 0 01-.146-.153l.085-.345.098-.375.162-.614.179-.686a.93.93 0 00-.334-1.033 9.906 9.906 0 01-.923-.777c-.5-.475-.94-.994-1.31-1.55-.869-1.308-1.328-2.792-1.328-4.293 0-1.164.266-2.297.79-3.366a8.633 8.633 0 011.569-2.21c1.68-1.728 4.045-2.837 6.656-3.12.454-.05.901-.075 1.328-.075.449 0 .916.027 1.388.08 2.599.296 4.949 1.41 6.617 3.138a8.618 8.618 0 011.56 2.215 7.584 7.584 0 01.778 3.338c0 .12-.007.24-.013.36a1.746 1.746 0 012.149.251c.03.03.054.062.08.093a9.11 9.11 0 00.031-.739 9.634 9.634 0 00-.986-4.243"/><path fill="#FB6500" d="M24.149 22.148a1.7 1.7 0 00-.21-.035 5.377 5.377 0 01-2.996-1.67v.001a.418.418 0 10-.534.64c.041.04.082.078.121.118a5.39 5.39 0 011.478 2.761 1.715 1.715 0 00.059.356 1.749 1.749 0 002.926.777 1.754 1.754 0 00-.844-2.948"/><path fill="#0082F0" d="M29.944 17.673a1.75 1.75 0 00-2.98 1.056 5.388 5.388 0 01-1.667 2.999.419.419 0 10.641.534l.117-.121a5.376 5.376 0 012.758-1.48 1.71 1.71 0 00.355-.058 1.754 1.754 0 00.776-2.93"/><path fill="#2DBC00" d="M22.53 12.717a1.754 1.754 0 001.054 2.982 5.376 5.376 0 012.996 1.67.419.419 0 10.534-.641 5.389 5.389 0 01-1.6-2.879 1.625 1.625 0 00-.058-.355 1.75 1.75 0 00-2.926-.777"/><path fill="#FC0" d="M20.543 19.19a1.93 1.93 0 00.015-.106 5.393 5.393 0 011.668-3 .42.42 0 10-.64-.534 5.375 5.375 0 01-2.876 1.6 1.73 1.73 0 00-.355.06 1.754 1.754 0 00-.776 2.93 1.75 1.75 0 002.964-.95"/></g></svg><svg width="15" height="15" fill="none" y="350" xmlns="http://www.w3.org/2000/svg"><path d="M10.9 6.14l-.318-.398-.192.153v.245h.51zm2.295-1.836l.319.398-.319-.398zM10.9 8.86h-.51v.245l.192.153.318-.398zm2.295 1.836l-.318.399.318-.399zM1.21 3.76a.17.17 0 01.17-.17V2.57A1.19 1.19 0 00.19 3.76h1.02zm0 7.48V3.76H.19v7.48h1.02zm.17.17a.17.17 0 01-.17-.17H.19c0 .657.533 1.19 1.19 1.19v-1.02zm8.84 0H1.38v1.02h8.84v-1.02zm.17-.17a.17.17 0 01-.17.17v1.02a1.19 1.19 0 001.19-1.19h-1.02zm0-7.48v7.48h1.02V3.76h-1.02zm-.17-.17a.17.17 0 01.17.17h1.02a1.19 1.19 0 00-1.19-1.19v1.02zm-8.84 0h8.84V2.57H1.38v1.02zm9.839 2.948l2.295-1.836-.637-.796-2.295 1.836.637.796zm.191 2.322V6.14h-1.02v2.72h1.02zm2.104 1.438l-2.295-1.836-.637.796 2.295 1.837.637-.797zm.276-.133a.17.17 0 01-.276.133l-.637.796c.779.624 1.933.07 1.933-.929h-1.02zm0-5.33v5.33h1.02v-5.33h-1.02zm-.276-.133a.17.17 0 01.276.133h1.02c0-.998-1.154-1.553-1.933-.93l.637.797z" fill="#0B121A" fill-opacity=".6"/></svg><svg width="36" height="36" x="280" y="70" xmlns="http://www.w3.org/2000/svg"><defs><path id="f" d="M0 0h17.784v9.576H0z"/></defs><g fill="none" fill-rule="evenodd"><circle fill="#0085DD" cx="18" cy="18" r="18"/><path d="M22.68 15.84v5.76l-.126-.001c.082.226.126.467.126.721 0 1.032-2.095 2.16-4.32 2.16-2.945 0-5.04-1.128-5.04-2.16 0-.254.044-.495.128-.72h-.128v-5.76h9.36z" fill="#FFF" opacity=".67"/><g transform="translate(9 10.8)"><mask id="g" fill="#fff"><use xlink:href="#f"/></mask><path stroke="#0085DD" stroke-width=".8" fill="#FFF" mask="url(#g)" transform="rotate(45 8.943 4.788)" d="M5.585 1.61l9.478-2.942-2.942 9.477-9.298 2.763z"/></g><path fill="#FFF" d="M25.2 15.84h1v6.48h-1z"/></g></svg><svg width="36" height="36" x="316" y="70" xmlns="http://www.w3.org/2000/svg"><g fill="none"><circle fill="#BC9B52" cx="18" cy="18" r="18"/><path d="M15.824 11.7l2.207 2.994 2.368-2.994h2.835l-4 4.629H23.4v2.121h-4.32v1.886h4.32V22.5h-4.32v2.7h-2.16v-2.7H12.6v-2.164h4.32V18.45l-4.32.001V16.33h4.14l.03-.04-3.72-4.589z" fill="#FFF"/></g></svg><svg width="36" height="36" x="240" y="110" xmlns="http://www.w3.org/2000/svg"><g fill="none" fill-rule="evenodd"><circle fill="#5DBC52" cx="18" cy="18" r="18"/><g fill="#FFF"><path d="M22.2 19.8c.517 0 .907-.127 1.2-.32v3.82a1 1 0 01-1 1h-8.8a1 1 0 01-1-1l-.001-3.82c.294.193.684.32 1.201.32 1.955 0 2.09-1.82 2.1-2.071V17.7s0 2.1 2.1 2.1c1.955 0 2.09-1.82 2.1-2.071V17.7s0 2.1 2.1 2.1z" opacity=".67"/><path d="M24.3 16.8l-1.05-4.2h-10.5l-1.05 4.2s0 2.1 2.1 2.1 2.1-2.1 2.1-2.1 0 2.1 2.1 2.1 2.1-2.1 2.1-2.1 0 2.1 2.1 2.1 2.1-2.1 2.1-2.1z"/></g></g></svg><svg height="36" width="36" x="276" y="110" xmlns="http://www.w3.org/2000/svg"><g fill="none" fill-rule="evenodd"><circle cx="18" cy="18" fill="#ec6750" r="18"/><path d="M18 22.29l-4.403 2.29c-.18.094-.297.008-.263-.188l.841-4.852-3.562-3.436c-.145-.14-.099-.277.1-.306l4.923-.708 2.202-4.414c.09-.18.235-.179.324 0l2.202 4.414 4.923.708c.2.029.244.167.1.306l-3.562 3.436.84 4.852c.035.198-.084.282-.262.189z" fill="#fff"/></g></svg><svg width="6" height="10" x="352" y="94" xmlns="http://www.w3.org/2000/svg"><path d="M1 1l3.888 3.888L1 8.776" stroke="#FFF" stroke-width="1.5" fill="none"/></svg><svg width="18" height="17" x="360" y="234" xmlns="http://www.w3.org/2000/svg"><g fill="none" fill-rule="evenodd" opacity=".9"><g transform="rotate(45 4.199 10.989)" fill="#FFF"><rect width="5.906" height="5.906" rx="1"/><rect x="6.188" width="5.906" height="5.906" rx="1"/><rect y="6.188" width="5.906" height="5.906" rx="1"/><rect x="6.188" y="6.188" width="5.906" height="5.906" rx="1"/></g><path d="M8.125 7.875V3.937h1.687v3.938h3.938v1.688H9.812V13.5H8.125V9.562H4.187V7.875h3.938z" fill="#E6595E"/></g></svg><svg height="17" width="35" x="312" y="110" xmlns="http://www.w3.org/2000/svg"><linearGradient id="h" x1="-215.603%" x2="283.588%" y1="73.26%" y2="15.28%"><stop offset="0" stop-color="#f7b500"/><stop offset="1" stop-color="#fa6400"/></linearGradient><path d="M133 8a3 3 0 013 3v11a3 3 0 01-3 3h-29a3 3 0 01-3-3V11a3 3 0 013-3zm-25.513 4.65h-1.574v7.75h1.87v-4.404h.101l3.239 4.404h1.563v-7.75h-1.87v4.36h-.101zm12.337 0h-5.312v7.75h5.312v-1.584h-3.34V17.23h3.141v-1.45h-3.142v-1.547h3.341zm3.277 0h-2.047l2.025 7.75h1.858l1.273-4.748h.097l1.295 4.748h1.847l2.025-7.75h-2.03l-1.015 5.14h-.097l-1.284-5.14h-1.579l-1.24 5.14h-.097z" fill="url(#h)" transform="translate(-101 -8)"/></svg><svg width="26" height="14" fill="none" x="312" y="127" xmlns="http://www.w3.org/2000/svg"><path d="M0 4.364A4.364 4.364 0 014.364 0h20.181C25.35 0 26 .651 26 1.455v8.181A4.364 4.364 0 0121.636 14H1.455A1.455 1.455 0 010 12.546V4.364z" fill="url(#cnpaint0_linear_920_42914)"/><path d="M5.415 10V6.612h.053L7.775 10h1.213V4.001h-1.45v3.35H7.48L5.182 4H3.96v6h1.455zm8.798-1.235h-2.549V7.557h2.386V6.423h-2.386V5.236h2.549V4.001h-4.109V10h4.109V8.765zM17.61 10l.975-3.652h.053L19.61 10h1.472l1.521-5.999h-1.64l-.707 3.903h-.07L19.24 4h-1.257l-.944 3.903h-.066L16.256 4h-1.639l1.52 6h1.473z" fill="#fff"/><defs><linearGradient id="cnpaint0_linear_920_42914" x1="0" y1="7" x2="12.13" y2="15.275" gradientUnits="userSpaceOnUse"><stop stop-color="#FD984F"/><stop offset="1" stop-color="#F16445"/></linearGradient></defs></svg><svg width="30" height="30" fill="none" y="240" xmlns="http://www.w3.org/2000/svg"><path opacity=".01" fill="#0A111A" fill-opacity=".5" d="M0 0h30v30H0z"/><path fill-rule="evenodd" clip-rule="evenodd" d="M22.604 23.048a1.445 1.445 0 00-.18-.031 4.544 4.544 0 01-2.564-1.489.347.347 0 00-.507 0 .385.385 0 00.05.572l.104.104c.67.7 1.091 1.56 1.264 2.463a1.607 1.607 0 00.436 1.01c.585.61 1.534.61 2.119 0a1.61 1.61 0 000-2.211 1.475 1.475 0 00-.722-.418m4.956-3.991a1.455 1.455 0 00-2.118 0 1.577 1.577 0 00-.43.942 4.875 4.875 0 01-1.428 2.674.385.385 0 000 .529.347.347 0 00.549-.052 4.547 4.547 0 012.46-1.427 1.4 1.4 0 00.304-.053c.243-.07.473-.203.664-.402a1.61 1.61 0 000-2.21m-6.345-4.42a1.61 1.61 0 000 2.21 1.476 1.476 0 00.902.45 4.543 4.543 0 012.565 1.488c.14.146.366.146.506 0a.386.386 0 00-.05-.572 4.872 4.872 0 01-1.369-2.567 1.513 1.513 0 00-.05-.316 1.577 1.577 0 00-.385-.693 1.455 1.455 0 00-2.119 0m-1.699 5.772a1.54 1.54 0 00.012-.095 4.879 4.879 0 011.428-2.674.385.385 0 000-.529.347.347 0 00-.549.052 4.62 4.62 0 01-2.46 1.428 1.44 1.44 0 00-.304.052 1.48 1.48 0 00-.664.402 1.61 1.61 0 000 2.21 1.454 1.454 0 002.119 0 1.576 1.576 0 00.418-.846" fill="#0A111A" fill-opacity=".5"/><path fill-rule="evenodd" clip-rule="evenodd" d="M21.041 6.985c-1.737-1.874-4.17-3.081-6.849-3.4-.48-.056-.957-.085-1.417-.085-.438 0-.894.026-1.356.079-2.692.305-5.138 1.506-6.888 3.382a9.6 9.6 0 00-1.673 2.458A8.889 8.889 0 002 13.233a9.03 9.03 0 001.436 4.854 13.2 13.2 0 001.97 2.348l-.323 2.654c-.013.036-.027.072-.035.11-.008.034-.01.07-.013.106-.002.027-.008.053-.008.081 0 .03.006.058.008.087.043.436.392.778.821.778a.8.8 0 00.41-.117c.03-.018.047-.027.064-.04l.773-.404 2.303-1.206c.662.199 1.319.325 2.011.405a11.951 11.951 0 002.775-.008 11.7 11.7 0 002.716-.662 1.491 1.491 0 01-.274-.128 1.582 1.582 0 01-.746-1.506c-.617.204-1.26.35-1.925.43a9.996 9.996 0 01-2.324.007c-.079-.01-.157-.022-.236-.033a9.888 9.888 0 01-1.523-.333c-.1-.033-.208-.05-.317-.05-.17 0-.336.047-.503.137-.022.012-.044.022-.066.035l-1.891 1.163-.082.05c-.043.026-.066.036-.087.036-.07 0-.126-.062-.126-.137l.073-.307.084-.334.138-.548.154-.611a.841.841 0 00-.286-.922 8.602 8.602 0 01-.79-.693 7.986 7.986 0 01-1.121-1.382 7.12 7.12 0 01-1.137-3.828c0-1.039.227-2.049.676-3.002a7.705 7.705 0 011.343-1.97c1.438-1.542 3.462-2.53 5.697-2.784.388-.044.77-.066 1.136-.066.384 0 .783.024 1.188.072 2.224.263 4.235 1.257 5.663 2.798a7.695 7.695 0 011.335 1.974c.442.947.666 1.95.666 2.978 0 .106-.006.213-.011.32a1.45 1.45 0 011.839.225c.025.026.046.055.069.083a8.89 8.89 0 00-.819-4.443 9.593 9.593 0 00-1.664-2.465z" fill="#0A111A" fill-opacity=".5"/></svg><svg width="18" height="18" x="360" y="251" xmlns="http://www.w3.org/2000/svg"><path fill="#FFF" fill-rule="evenodd" d="M18 14v2H0v-2h18zm0-6v2H0V8h18zm0-6v2H0V2h18z"/></svg><svg width="18" height="18" x="360" y="269" xmlns="http://www.w3.org/2000/svg"><path fill-rule="evenodd" d="M18 14v2H0v-2h18zm0-6v2H0V8h18zm0-6v2H0V2h18z" opacity=".7"/></svg><svg width="30" height="30" fill="none" x="30" y="240" xmlns="http://www.w3.org/2000/svg"><path fill-rule="evenodd" clip-rule="evenodd" d="M6 5a2 2 0 00-2 2v4.86l-2.876 2.368a1 1 0 000 1.544L4 18.14V23a2 2 0 002 2h20a2 2 0 002-2V7a2 2 0 00-2-2H6zm12 10a1.5 1.5 0 113 0 1.5 1.5 0 01-3 0zm-5.5-1.5a1.5 1.5 0 100 3 1.5 1.5 0 000-3z" fill="#267EF0"/></svg><svg width="30" height="30" fill="none" x="60" y="240" xmlns="http://www.w3.org/2000/svg"><path fill-rule="evenodd" clip-rule="evenodd" d="M15.5 25.068c6.904 0 12.5-4.828 12.5-10.784S22.404 3.5 15.5 3.5 3 8.328 3 14.284c0 2.515.998 4.828 2.67 6.662l-1.188 4.156a.5.5 0 00.682.596l4.395-1.923a14.04 14.04 0 005.941 1.293zm4.424-12.962c-.837 0-1.5-.662-1.5-1.5 0-.837.663-1.5 1.5-1.5.838 0 1.5.663 1.5 1.5 0 .803-.662 1.5-1.5 1.5zm-9.01 0c-.837 0-1.5-.662-1.5-1.5 0-.837.663-1.5 1.5-1.5s1.5.663 1.5 1.5c0 .803-.663 1.5-1.5 1.5z" fill="#267EF0"/></svg><svg width="30" height="30" fill="none" x="90" y="240" xmlns="http://www.w3.org/2000/svg"><path fill-rule="evenodd" clip-rule="evenodd" d="M16 28c7.18 0 13-5.82 13-13S23.18 2 16 2 3 7.82 3 15s5.82 13 13 13zm.75-15A2.25 2.25 0 0119 10.75h.474a1.776 1.776 0 010 3.553h-.045a.75.75 0 000 1.5h.045a3.276 3.276 0 000-6.553H19A3.75 3.75 0 0015.25 13v4.105a2.25 2.25 0 01-2.25 2.25h-.654a1.596 1.596 0 110-3.192h.225a.75.75 0 000-1.5h-.225a3.096 3.096 0 000 6.192H13a3.75 3.75 0 003.75-3.75V13z" fill="#267EF0"/></svg><svg width="30" height="30" fill="none" x="120" y="240" xmlns="http://www.w3.org/2000/svg"><rect x="16" y="16" width="10" height="10" rx="2" fill="#267EF0"/><rect x="4" y="16" width="10" height="10" rx="2" fill="#267EF0"/><path fill-rule="evenodd" clip-rule="evenodd" d="M6 4a2 2 0 00-2 2v6a2 2 0 002 2h6a2 2 0 002-2V6a2 2 0 00-2-2H6zm12 0a2 2 0 00-2 2v6a2 2 0 002 2h6a2 2 0 002-2V6a2 2 0 00-2-2h-6z" fill="#267EF0"/></svg><svg width="30" height="30" fill="none" x="150" y="240" xmlns="http://www.w3.org/2000/svg"><path fill-rule="evenodd" clip-rule="evenodd" d="M14.495 2.295a1 1 0 011.01 0L26.524 8.74a1 1 0 010 1.726l-11.02 6.444a1 1 0 01-1.009 0L3.476 10.466a1 1 0 010-1.726l11.02-6.445z" fill="#267EF0"/><path d="M25.775 15L14.86 21.383 3.948 15" stroke="#267EF0" stroke-width="2.5" stroke-linecap="round" stroke-linejoin="round"/><path d="M25.775 20.417L14.86 26.799 3.948 20.417" stroke="#267EF0" stroke-width="2.5" stroke-linecap="round" stroke-linejoin="round"/></svg><svg width="30" height="30" fill="none" x="180" y="240" xmlns="http://www.w3.org/2000/svg"><rect x="16" y="16" width="11" height="11" rx="5.5" fill="#267EF0"/><rect x="3" y="16" width="11" height="11" rx="5.5" fill="#267EF0"/><path fill-rule="evenodd" clip-rule="evenodd" d="M17.06 6.94a1.5 1.5 0 000 2.121l3.536 3.536a1.5 1.5 0 002.122 0l3.535-3.536a1.5 1.5 0 000-2.121l-3.535-3.536a1.5 1.5 0 00-2.122 0L17.061 6.94zM8.5 3a5.5 5.5 0 100 11 5.5 5.5 0 000-11z" fill="#267EF0"/></svg><svg width="30" height="30" fill="none" x="210" y="240" xmlns="http://www.w3.org/2000/svg"><circle cx="15" cy="15" r="13" transform="rotate(-90 15 15)" fill="#267EF0"/><rect x="8" y="17" width="4" height="4" rx="2" transform="rotate(-90 8 17)" fill="#fff"/><rect x="17" y="21" width="4" height="4" rx="2" transform="rotate(-90 17 21)" fill="#fff"/><path fill-rule="evenodd" clip-rule="evenodd" d="M13.875 14.37V11.5c0-.621.504-1.125 1.125-1.125h3v1.25h-2.875v6.75H18v1.25h-3a1.125 1.125 0 01-1.125-1.125v-2.88h-2.346v-1.25h2.346z" fill="#fff"/><rect x="17" y="13" width="4" height="4" rx="2" transform="rotate(-90 17 13)" fill="#fff"/></svg><svg width="30" height="30" fill="none" x="240" y="240" xmlns="http://www.w3.org/2000/svg"><path fill-rule="evenodd" clip-rule="evenodd" d="M4 6a2 2 0 012-2h19a2 2 0 012 2v4H4V6zm10 1a1 1 0 11-2 0 1 1 0 012 0zm-4 1a1 1 0 100-2 1 1 0 000 2zM8 7a1 1 0 11-2 0 1 1 0 012 0zm19 5H4v12a2 2 0 002 2h19a2 2 0 002-2V12z" fill="#267EF0"/></svg><svg width="30" height="30" fill="none" x="270" y="240" xmlns="http://www.w3.org/2000/svg"><path fill-rule="evenodd" clip-rule="evenodd" d="M15 30c8.284 0 15-6.716 15-15 0-8.284-6.716-15-15-15C6.716 0 0 6.716 0 15c0 8.284 6.716 15 15 15zm8.207-18.993a1 1 0 00-1.414-1.414l-9 9-3.586-3.587a1 1 0 00-1.414 1.415l4.187 4.187c.45.449 1.177.449 1.627 0l9.6-9.6z" fill="#267EF0"/></svg><svg width="30" height="30" fill="none" x="300" y="240" xmlns="http://www.w3.org/2000/svg"><path fill-rule="evenodd" clip-rule="evenodd" d="M15 30c8.284 0 15-6.716 15-15 0-8.284-6.716-15-15-15C6.716 0 0 6.716 0 15c0 8.284 6.716 15 15 15zm5.517-8.448l.47-.475c.173-.174.339-.426.485-.688.356-.635.07-1.41-.558-1.778l-2.134-1.25a1.5 1.5 0 00-1.55.02l-.493.307c-.337.21-.861.177-1.167-.074 0 0-.936-.737-1.638-1.447-.709-.716-1.585-1.818-1.585-1.818-.25-.308-.285-.834-.078-1.174l.298-.489a1.5 1.5 0 00-.02-1.59l-1.373-2.14c-.363-.565-1.07-.837-1.657-.51a2.72 2.72 0 00-.603.436l-.47.475c-1.3 1.312.35 5.105 3.685 8.473 3.334 3.368 7.09 5.034 8.388 3.722z" fill="#267EF0"/></svg><svg width="30" height="30" x="330" y="240" xmlns="http://www.w3.org/2000/svg"><g fill="none" fill-rule="evenodd"><path d="M15 30c8.284 0 15-6.716 15-15 0-8.284-6.716-15-15-15C6.716 0 0 6.716 0 15c0 8.284 6.716 15 15 15z" fill="#0085DD"/><path d="M20.502 9A1.5 1.5 0 0122 10.49v8.072c0 .823-.675 1.49-1.498 1.49H9.498A1.5 1.5 0 018 18.563v-8.071C8 9.667 8.675 9 9.498 9h11.004zm.666 1.275l-5.31 3.294c-.472.293-1.237.298-1.704.008l-5.33-3.302v1.318l5.31 3.294c.472.293 1.237.298 1.705.008l5.337-3.302-.008-1.318z" fill="#FFF"/></g></svg><svg width="30" height="30" fill="none" y="270" xmlns="http://www.w3.org/2000/svg"><path fill-rule="evenodd" clip-rule="evenodd" d="M15 30c8.284 0 15-6.716 15-15 0-8.284-6.716-15-15-15C6.716 0 0 6.716 0 15c0 8.284 6.716 15 15 15zM13 9a1 1 0 011-1h2a1 1 0 011 1v2a1 1 0 01-1 1h-2a1 1 0 01-1-1V9zm-3.375 5.625V16H10a1 1 0 011 1v2a1 1 0 01-1 1H8a1 1 0 01-1-1v-2a1 1 0 011-1h.375v-1.9c0-.4.325-.725.725-.725h11.8c.4 0 .725.325.725.725V16H22a1 1 0 011 1v2a1 1 0 01-1 1h-2a1 1 0 01-1-1v-2a1 1 0 011-1h.375v-1.375h-4.75V16H16a1 1 0 011 1v2a1 1 0 01-1 1h-2a1 1 0 01-1-1v-2a1 1 0 011-1h.375v-1.375h-4.75z" fill="#267EF0"/></svg><svg width="30" height="30" fill="none" x="30" y="270" xmlns="http://www.w3.org/2000/svg"><path fill-rule="evenodd" clip-rule="evenodd" d="M30 15c0 8.284-6.716 15-15 15-8.284 0-15-6.716-15-15C0 6.716 6.716 0 15 0c8.284 0 15 6.716 15 15zM10.5 9a.5.5 0 00-.5.5V11H8.75a.75.75 0 000 1.5H10v1a.5.5 0 00.5.5h1a.5.5 0 00.5-.5v-4a.5.5 0 00-.5-.5h-1zm10.75 3.5H13V11h8.25a.75.75 0 010 1.5zm-3.25 3a.5.5 0 01.5-.5h1a.5.5 0 01.5.5V17h1.25a.75.75 0 010 1.5H20v1a.5.5 0 01-.5.5h-1a.5.5 0 01-.5-.5v-4zM17 17H8.75a.75.75 0 000 1.5H17V17z" fill="#267EF0"/></svg><svg width="30" height="30" x="60" y="270" xmlns="http://www.w3.org/2000/svg"><g fill="none" fill-rule="evenodd"><rect fill="#0085DD" width="30" height="30" rx="15"/><path d="M10.22 19v-1H6.36v-6.14H5.2V19h5.02zm2.07 0v-7.14h-1.17V19h1.17zm4.7 0l2.54-7.14h-1.27l-1.96 5.82h-.03l-1.96-5.82h-1.27L15.58 19h1.41zm8.61 0v-1h-4.15v-2.16h3.74v-1h-3.74v-1.98h3.98v-1h-5.15V19h5.32z" stroke="#FFF" stroke-width=".5" fill="#FFF" fill-rule="nonzero"/></g></svg><svg width="30" height="30" fill="none" x="90" y="270" xmlns="http://www.w3.org/2000/svg"><path d="M30 15c0 8.284-6.716 15-15 15-8.284 0-15-6.716-15-15C0 6.716 6.716 0 15 0c8.284 0 15 6.716 15 15z" fill="#267EF0"/><path fill-rule="evenodd" clip-rule="evenodd" d="M11.308 8.23a.615.615 0 100 1.232h7.384a.615.615 0 000-1.231h-7.384zM9.46 11c0-.34.276-.615.616-.615h9.846a.615.615 0 010 1.23h-9.846A.615.615 0 019.46 11zm-.923 2.462c0-.51.414-.923.923-.923h11.077c.51 0 .923.413.923.923v6.769c0 .51-.413.923-.923.923H9.461a.923.923 0 01-.923-.923v-6.77z" fill="#fff"/></svg><svg width="30" height="30" fill="none" x="120" y="270" xmlns="http://www.w3.org/2000/svg"><path d="M30 15c0 8.284-6.716 15-15 15-8.284 0-15-6.716-15-15C0 6.716 6.716 0 15 0c8.284 0 15 6.716 15 15z" fill="#267EF0"/><path fill-rule="evenodd" clip-rule="evenodd" d="M9 9.683a1 1 0 01.775-.974l4.612-1.067a.5.5 0 01.613.487v13.735a.5.5 0 01-.618.486l-4.618-1.123A1 1 0 019 20.256V9.683zM16 8.5h4a1 1 0 011 1v11a1 1 0 01-1 1h-4v-13z" fill="#fff"/><rect x="13" y="14" width="1" height="2" rx=".5" fill="#267EF0"/></svg><svg width="30" height="30" fill="none" x="150" y="270" xmlns="http://www.w3.org/2000/svg"><path fill-rule="evenodd" clip-rule="evenodd" d="M30 15c0 8.284-6.716 15-15 15-8.284 0-15-6.716-15-15C0 6.716 6.716 0 15 0c8.284 0 15 6.716 15 15zm-10.256 4.423h3.322v-.968c0-.505-.354-.713-2.2-1.426-1.848-.712-1.184-1.99-1.184-1.99.73-1.106.818-1.83.575-3.212-.156-.89-1.298-1.222-1.521-1.245a2.17 2.17 0 00-.541 0c-.217.023-1.365.356-1.521 1.245-.244 1.383-.155 2.106.575 3.213 0 0 .257.494.006 1.04 1.961.784 2.445 1.153 2.486 2.027l.003.133v1.183zm-1.147-1.38v1.183H7.35v-1.183c0-.614.433-.871 2.69-1.742 2.258-.871 1.447-2.432 1.447-2.432-.893-1.352-1-2.237-.703-3.927.19-1.087 1.593-1.494 1.859-1.521.265-.028.388-.028.661 0 .274.027 1.668.434 1.86 1.521.297 1.69.189 2.575-.703 3.927 0 0-.812 1.56 1.446 2.432 2.258.87 2.69 1.125 2.69 1.742z" fill="#267EF0"/></svg><svg width="30" height="30" x="180" y="270" xmlns="http://www.w3.org/2000/svg"><defs><circle id="i" cx="15" cy="15" r="15"/></defs><g fill="none" fill-rule="evenodd"><mask id="j" fill="#fff"><use xlink:href="#i"/></mask><use fill="#0085DD" xlink:href="#i"/><path d="M21.563 9c.241 0 .437.196.437.438v11.124a.437.437 0 01-.438.438H8.438A.437.437 0 018 20.562V9.438C8 9.197 8.196 9 8.438 9h13.124zM11.5 17.543a.865.865 0 00-.875.854c0 .472.392.855.875.855a.865.865 0 00.875-.855.865.865 0 00-.875-.854zm3.5 0a.865.865 0 00-.875.854c0 .472.392.855.875.855a.865.865 0 00.875-.855.865.865 0 00-.875-.854zm3.5 0a.865.865 0 00-.875.854c0 .472.392.855.875.855a.865.865 0 00.875-.855.865.865 0 00-.875-.854zm-7-3.417a.865.865 0 00-.875.854c0 .472.392.854.875.854a.865.865 0 00.875-.854.865.865 0 00-.875-.854zm3.5 0a.865.865 0 00-.875.854c0 .472.392.854.875.854a.865.865 0 00.875-.854.865.865 0 00-.875-.854zm3.5 0a.865.865 0 00-.875.854c0 .472.392.854.875.854a.865.865 0 00.875-.854.865.865 0 00-.875-.854zm2.265-2.691H9.235v.99h11.53v-.99z" fill="#FFF" mask="url(#j)"/></g></svg><svg width="30" height="30" fill="none" x="210" y="270" xmlns="http://www.w3.org/2000/svg"><path d="M30 15c0 8.284-6.716 15-15 15-8.284 0-15-6.716-15-15C0 6.716 6.716 0 15 0c8.284 0 15 6.716 15 15z" fill="#267EF0"/><path fill-rule="evenodd" clip-rule="evenodd" d="M17.5 14c.828 0 1.5-1.343 1.5-3s-.672-3-1.5-3S16 9.343 16 11s.672 3 1.5 3zm-5 8c.829 0 1.5-1.343 1.5-3s-.671-3-1.5-3c-.828 0-1.5 1.343-1.5 3s.672 3 1.5 3zm.384-8.664c-.414-.718-1.913-.628-3.348.2-1.435.83-2.262 2.082-1.848 2.8.414.717 1.913.627 3.348-.201 1.435-.829 2.263-2.082 1.848-2.8zm9.428.33c-.414-.718-1.913-.628-3.348.2-1.434.83-2.262 2.082-1.848 2.8.415.717 1.913.627 3.348-.201 1.435-.829 2.263-2.082 1.848-2.8zm-8.776-4.13c1.435.83 2.263 2.082 1.848 2.8-.414.717-1.913.627-3.348-.201-1.435-.829-2.262-2.082-1.848-2.8.414-.717 1.913-.627 3.348.202zm4.428 8.33c1.435.83 2.263 2.082 1.848 2.8-.414.717-1.913.627-3.348-.201-1.434-.829-2.262-2.082-1.848-2.8.415-.717 1.913-.627 3.348.202z" fill="#fff"/><rect x="13" y="14" width="1" height="2" rx=".5" fill="#267EF0"/></svg><svg width="30" height="30" x="240" y="270" xmlns="http://www.w3.org/2000/svg"><g fill="none" fill-rule="evenodd"><path d="M15 30c8.284 0 15-6.716 15-15 0-8.284-6.716-15-15-15C6.716 0 0 6.716 0 15c0 8.284 6.716 15 15 15z" fill="#0085DD"/><path d="M10.538 20.995C8.289 20.889 6.5 19.113 6.5 16.937c0-1.966 1.461-3.606 3.403-3.981l-.003-.081C9.9 10.183 12.183 8 15 8c2.817 0 5.1 2.183 5.1 4.875v.082c1.94.375 3.4 2.015 3.4 3.98 0 2.244-1.903 4.063-4.25 4.063h-8.5z" fill="#FFF"/><path d="M13.568 12.084a1.473 1.473 0 00-.497.249l-.07.055-.283.269c-.725.698.08 2.463 1.691 4.016 1.613 1.554 3.447 2.33 4.175 1.63l.216-.208a1.863 1.863 0 00.415-.607c.083-.166.015-.4-.163-.509l-1.161-.712a.861.861 0 00-.841-.002l-.276.163-.108.059c-.055.026-.079.028-.089.02l-.347-.246-.377-.283a4.575 4.575 0 01-.34-.286 3.763 3.763 0 01-.195-.207l-.17-.198a14.34 14.34 0 01-.447-.566c-.022-.027-.01-.073.074-.205l.18-.283a.757.757 0 00-.024-.797l-.843-1.185a.483.483 0 00-.52-.167z" fill="#0085DD"/></g></svg><svg width="30" height="30" x="270" y="270" xmlns="http://www.w3.org/2000/svg"><defs><path d="M10.464 20a.45.45 0 01-.429-.311l-3.027-9.336A.27.27 0 017.265 10H9.81a.45.45 0 01.428.311L11.757 15l1.52-4.688a.45.45 0 01.347-.303l.082-.008h2.588a.45.45 0 01.428.311L18.242 15l1.52-4.688a.45.45 0 01.347-.303l.082-.008h2.544a.27.27 0 01.257.353l-3.027 9.336a.45.45 0 01-.429.311H16.95a.45.45 0 01-.429-.311L15 15l-1.52 4.689a.45.45 0 01-.347.303l-.082.008h-2.587z" id="k"/></defs><g fill="none" fill-rule="evenodd"><circle fill="#0085DD" cx="15" cy="15" r="15"/><use fill="#FFF" xlink:href="#k"/></g></svg><svg width="30" height="30" x="300" y="270" xmlns="http://www.w3.org/2000/svg"><defs><circle id="l" cx="15" cy="15" r="15"/></defs><g fill="none" fill-rule="evenodd"><mask id="m" fill="#fff"><use xlink:href="#l"/></mask><use fill="#0085DD" xlink:href="#l"/><path d="M12.974 17.023L15 18.18V23l-2.026-1.16v-4.817zM22 14.183V19l-7 4v-4.819l7-3.999zM10.027 9.84l4.236 2.41-2.026 1.158v8L8 19v-8l.001-.001 2.026-1.158zm.829-.473L15 7l7 4h-.001L22 13.34l-4.144 2.369v-2.34l-7-4z" fill="#FFF" mask="url(#m)"/></g></svg><svg width="30" height="30" fill="none" x="330" y="270" xmlns="http://www.w3.org/2000/svg"><path fill-rule="evenodd" clip-rule="evenodd" d="M15 30c8.284 0 15-6.716 15-15 0-8.284-6.716-15-15-15C6.716 0 0 6.716 0 15c0 8.284 6.716 15 15 15zm5.745-16.34a6.17 6.17 0 00.05-.777c0-3.25-2.53-5.883-5.648-5.883C12.028 7 9.5 9.634 9.5 12.883c0 .263.017.523.049.777h-.01c.226 2.392 2.958 6.017 4.525 7.921a1.39 1.39 0 002.167-.006c1.556-1.91 4.27-5.54 4.527-7.915h-.013zm-3.427-.889c0 1.226-.972 2.22-2.171 2.22-1.2 0-2.171-.994-2.171-2.22 0-1.226.972-2.22 2.171-2.22 1.2 0 2.171.994 2.171 2.22z" fill="#267EF0"/></svg><svg width="30" height="30" fill="none" y="300" xmlns="http://www.w3.org/2000/svg"><path fill-rule="evenodd" clip-rule="evenodd" d="M15 30c8.284 0 15-6.716 15-15 0-8.284-6.716-15-15-15C6.716 0 0 6.716 0 15c0 8.284 6.716 15 15 15zM9.26 18.93a.76.76 0 01-.75-.883l.305-1.824a1.519 1.519 0 011.497-1.27h2.943a.07.07 0 00.07-.078l-.656-5.244a2.34 2.34 0 114.645 0l-.656 5.244a.07.07 0 00.07.079h2.943c.742 0 1.375.537 1.497 1.269l.304 1.824a.76.76 0 01-.748.884H9.259zm.163 1.185a.19.19 0 01.19-.19h10.889a.19.19 0 01.19.19v.74a.57.57 0 01-.57.57H9.992a.57.57 0 01-.569-.57v-.74z" fill="#267EF0"/></svg><svg width="30" height="30" fill="none" x="30" y="300" xmlns="http://www.w3.org/2000/svg"><path fill-rule="evenodd" clip-rule="evenodd" d="M15 30c8.284 0 15-6.716 15-15 0-8.284-6.716-15-15-15C6.716 0 0 6.716 0 15c0 8.284 6.716 15 15 15zM9.687 9.125a1 1 0 011-1h8.626a1 1 0 011 1v11.75a1 1 0 01-1 1h-8.625a1 1 0 01-1-1V9.125zm3.126 3.375a.937.937 0 100-1.875.937.937 0 000 1.875zm-.47 1.563a.469.469 0 100 .937h5.313a.469.469 0 000-.938h-5.312zm-.468 2.656c0-.26.21-.469.469-.469h2.187a.469.469 0 010 .938h-2.187a.469.469 0 01-.469-.47zm.469 1.718a.469.469 0 100 .938h3.437a.469.469 0 000-.938h-3.437z" fill="#267EF0"/></svg><svg width="30" height="30" fill="none" x="60" y="300" xmlns="http://www.w3.org/2000/svg"><path fill-rule="evenodd" clip-rule="evenodd" d="M15 30c8.284 0 15-6.716 15-15 0-8.284-6.716-15-15-15C6.716 0 0 6.716 0 15c0 8.284 6.716 15 15 15zm-2.3-13.14c.082 0 .16-.02.228-.055l.056-.032 8.75-5.125a5.62 5.62 0 01.866 2.977c0 3.548-3.403 6.424-7.6 6.424a8.87 8.87 0 01-2.48-.352.754.754 0 00-.224-.034.788.788 0 00-.404.119l-1.664.974a.283.283 0 01-.146.048.255.255 0 01-.253-.257c0-.048.014-.096.028-.142l.013-.046.342-1.296a.516.516 0 00-.186-.582C8.424 18.303 7.4 16.56 7.4 14.625 7.4 11.076 10.803 8.2 15 8.2c2.565 0 4.832 1.075 6.208 2.72l-7.678 3.467a.747.747 0 01-.675-.078l-1.633-1.179a.25.25 0 00-.151-.051.255.255 0 00-.23.365l1.384 3.08.033.074a.505.505 0 00.442.263z" fill="#267EF0"/></svg><svg width="9" height="8" x="347" y="198" xmlns="http://www.w3.org/2000/svg"><path d="M.667 1.143h7.661m-7.661 3h7.661m-7.661 3h7.661" fill="none" stroke="#FFF" opacity=".7"/></svg><svg width="11" height="11" x="336" y="198" xmlns="http://www.w3.org/2000/svg"><path d="M2 2.5h7.661M2 5.5h7.661M2 8.5h7.661" fill="none" stroke="#000" opacity=".6"/></svg><svg width="26" height="26" x="271" y="210" xmlns="http://www.w3.org/2000/svg"><g fill="none" fill-rule="evenodd"><circle cx="13" cy="13" r="12" fill="#000" stroke="#FFF" stroke-width="2"/><path fill="#FFF" d="M14.414 13l3.536 3.536a1 1 0 01-1.414 1.414L13 14.414 9.464 17.95a1 1 0 01-1.414-1.414L11.586 13 8.05 9.464A1 1 0 019.464 8.05L13 11.586l3.536-3.536a1 1 0 011.414 1.414L14.414 13z"/></g></svg><svg width="30" height="30" fill="none" x="90" y="300" xmlns="http://www.w3.org/2000/svg"><path fill-rule="evenodd" clip-rule="evenodd" d="M14.34 21.86a12.732 12.732 0 01-6.495-.24 687.41 687.41 0 01-3.496 1.437c-.233.094-.572-.395-.572-.395l.799-2.65C2.314 18.382.883 15.975.883 13.29c0-4.904 4.772-8.879 10.658-8.879 5.533 0 10.081 3.512 10.607 8.006a9.735 9.735 0 00-.553-.015c-4.415 0-7.993 2.981-7.993 6.659 0 1 .264 1.947.737 2.798zm-6.755-9.457c.789 0 1.428-.646 1.428-1.443 0-.796-.64-1.442-1.428-1.442-.79 0-1.429.646-1.429 1.442 0 .797.64 1.443 1.429 1.443zm9.34-1.443c0 .797-.64 1.443-1.428 1.443a1.436 1.436 0 01-1.429-1.443c0-.796.64-1.442 1.429-1.442s1.428.646 1.428 1.442z" fill="#0A111A" fill-opacity=".5"/><path fill-rule="evenodd" clip-rule="evenodd" d="M21.595 25.128c-3.924 0-7.106-2.65-7.106-5.919 0-3.269 3.182-5.919 7.106-5.919s7.105 2.65 7.105 5.919c0 1.76-.921 3.34-2.384 4.424l.476 1.98s-.384.509-.51.458c-.696-.283-1.682-.754-2.591-1.205a8.43 8.43 0 01-2.096.262zm1.685-7.473c0 .531.426.962.952.962s.953-.43.953-.962a.957.957 0 00-.953-.962.957.957 0 00-.952.962zm-4.322.962a.957.957 0 01-.952-.962c0-.531.426-.962.952-.962s.952.431.952.962a.957.957 0 01-.952.962z" fill="#0A111A" fill-opacity=".5"/></svg><svg width="30" height="30" fill="none" x="120" y="300" xmlns="http://www.w3.org/2000/svg"><path fill-rule="evenodd" clip-rule="evenodd" d="M21.425 4.418c2.88.287 5.318 1.316 6.918 3.781.508.783.71 1.663.776 2.579.065.904.105 1.807-.092 2.702-.04.185-.094.37-.165.546-.22.54-.535.717-1.151.66-.394-.036-.735-.367-.804-.847a2.68 2.68 0 01.019-.82c.329-1.925-.154-3.629-1.525-5.057-.81-.844-1.888-1.216-3.053-1.322-.353-.033-.71-.028-1.068-.024-.2.003-.4.006-.6.002a3.988 3.988 0 01-.707-.057c-.35-.07-.632-.262-.691-.626-.067-.412-.028-.816.34-1.108.351-.279.78-.361 1.214-.405.134-.014.27-.01.405-.007l.184.003zM12.162 27.07c-2.5-.03-5.018-.416-7.383-1.504-1.321-.608-2.506-1.401-3.37-2.564C.055 21.179-.14 19.201.693 17.125c.605-1.506 1.559-2.806 2.64-4.022 1.556-1.75 3.312-3.28 5.365-4.471 1.137-.66 2.357-1.089 3.7-1.068.962.015 1.748.37 2.138 1.287.28.658.272 1.33.001 1.997l-.028.069c-.063.154-.127.31-.164.47-.079.334.123.506.464.409.06-.017.115-.045.17-.073l.053-.025c1.53-.729 3.147-1.05 4.84-.895 1.516.138 2.491 1.528 2.076 2.895-.048.159-.14.306-.232.452-.04.065-.08.13-.118.195a.222.222 0 01-.039.048l-.023.025c-.413.502-.289.784.358.913.519.105 1.047.218 1.534.414 1.56.628 2.304 1.968 1.99 3.578-.382 1.95-1.449 3.503-3.03 4.737-1.635 1.277-3.527 2.027-5.55 2.497-1.507.35-3.037.498-4.677.513zm-1.118-2.181c2.343-.003 4.527-.532 6.323-1.504 1.17-.633 2.182-1.438 2.886-2.563 1.034-1.65.812-3.469-.588-4.841-.723-.709-1.59-1.206-2.556-1.518-3.384-1.094-6.66-.76-9.821.773-1.143.554-2.135 1.313-2.867 2.344-.945 1.33-1.19 2.737-.367 4.213.448.805 1.139 1.388 1.942 1.848 1.608.92 3.375 1.225 5.048 1.248zm13.925-11.79c.296-.416.392-.882.417-1.372-.029-.55-.117-1.082-.395-1.58-.883-1.577-2.477-2.246-4.18-1.737-.354.106-.562.37-.567.719-.007.524.323.855.88.886l.211.01c.184.006.368.013.548.043.693.117 1.247.453 1.441 1.133.077.267.083.553.09.839.003.12.006.24.014.358.005.079.006.158.006.237.002.142.003.284.03.421.063.308.328.491.647.476.35-.017.646-.136.858-.433zm-10.38 3.995c-.857-.611-1.837-.852-2.793-.857-1.586.019-3.033.649-3.973 1.69-1.55 1.717-1.262 4.094.647 5.326 2.255 1.456 5.68.708 7.07-1.544.994-1.609.607-3.502-.951-4.615zm-4.805 5.06c.598-.009 1.065-.19 1.446-.565.248-.245.408-.537.441-.882.06-.629-.37-1.186-1.046-1.333-.713-.156-1.337.03-1.837.54-.403.41-.561.903-.319 1.444.256.57.765.77 1.315.795zm3.352-2.922c-.006.345-.376.653-.778.648-.351-.004-.622-.245-.618-.549.006-.348.368-.648.778-.643.356.003.623.239.618.544z" fill="#0A111A" fill-opacity=".5"/></svg><svg width="30" height="30" fill="none" x="150" y="300" xmlns="http://www.w3.org/2000/svg"><path d="M30 15c0 8.284-6.716 15-15 15-8.284 0-15-6.716-15-15C0 6.716 6.716 0 15 0c8.284 0 15 6.716 15 15z" fill="#267EF0"/><rect x="13" y="14" width="1" height="2" rx=".5" fill="#267EF0"/><path d="M8 15h12m-3-5l4.646 4.646a.5.5 0 010 .708L17 20" stroke="#fff" stroke-width="2" stroke-linecap="round"/></svg><svg width="20" height="20" fill="none" x="320" y="300" xmlns="http://www.w3.org/2000/svg"><path fill-rule="evenodd" clip-rule="evenodd" d="M1 9.826C1 5.492 5.04 2 10 2s9 3.492 9 7.826-4.04 7.826-9 7.826c-1.357 0-2.674-.266-3.802-.745a.918.918 0 01-.257-.096l-.11-.055a1.24 1.24 0 00-.844-.05l-2.487.287-.159.049c-.445.14-1.056.331-1.177-.049a.785.785 0 01.043-.583l.78-1.602a1.62 1.62 0 00-.008-1.445A6.934 6.934 0 011 9.826zm9 3.438c-1.443 0-2.656-.907-3-2.134l6 .004c-.345 1.225-1.557 2.13-3 2.13z" fill="#8393A5"/></svg><svg width="22" height="20" fill="none" x="336" y="146" xmlns="http://www.w3.org/2000/svg"><path fill-rule="evenodd" clip-rule="evenodd" d="M18.758 7.293a4.27 4.27 0 00-5.4-.861l-1.159-1.328a7.583 7.583 0 00-.238-.26 6.36 6.36 0 11-1.203 9.444l-3.21-3.548A1.046 1.046 0 119.1 9.337l3.215 3.555.006.007.006.007a4.268 4.268 0 006.431-5.613zM3.656 6.887a4.268 4.268 0 004.991 6.883l1.16 1.329c.077.089.156.175.237.26a6.36 6.36 0 111.203-9.445l3.21 3.549a1.046 1.046 0 11-1.552 1.402L9.69 7.311l-.006-.007-.006-.007a4.268 4.268 0 00-6.022-.41z" fill="#8393A5"/></svg><svg width="20" height="20" fill="none" x="340" y="300" xmlns="http://www.w3.org/2000/svg"><mask id="n" style="mask-type:alpha" maskUnits="userSpaceOnUse" x="1" y="2" width="18" height="16"><path fill-rule="evenodd" clip-rule="evenodd" d="M1 2h18v15.3H1V2z" fill="#fff"/></mask><g mask="url(#n)" fill-rule="evenodd" clip-rule="evenodd" fill="#8393A5"><path d="M8.938 11.437a20.821 20.821 0 01-1.245 2.046c-.862 1.232-1.458 1.704-1.8 1.884a.344.344 0 01-.445-.113c-.39-.576-1.134-2.093-1.822-4.781-.734-2.867-.979-5.504-.596-6.413a.26.26 0 01.37-.124c.518.3 1.806 1.392 4.242 5.367.548.894 1.02 1.676 1.296 2.134zm7.436-.964c-.674 2.635-1.403 4.145-1.795 4.745a.405.405 0 01-.55.117c-.73-.445-1.928-1.898-2.97-3.894.276-.457.75-1.24 1.3-2.138 2.443-3.987 3.732-5.074 4.245-5.37a.252.252 0 01.365.123l.002.004c.382.909.137 3.546-.597 6.413zm2.31-7.11c-.466-1.109-1.246-1.327-1.67-1.358-1.581-.116-3.444 1.787-6.244 6.357-.282.46-.543.89-.77 1.263-.225-.371-.487-.8-.77-1.263-2.8-4.571-4.67-6.472-6.244-6.357-.424.031-1.204.25-1.67 1.358-.644 1.53-.16 4.52.185 6.168.522 2.487 1.362 4.964 2.141 6.311.518.896 1.036 1.353 1.63 1.438.094.013.191.02.287.02 1.754 0 3.423-2.25 4.44-3.965 1.019 1.715 2.688 3.965 4.442 3.965.096 0 .193-.007.288-.02.593-.085 1.111-.542 1.629-1.438.779-1.347 1.619-3.824 2.14-6.311.346-1.647.83-4.639.186-6.168z"/><path d="M8.938 11.437a20.821 20.821 0 01-1.245 2.046c-.862 1.232-1.458 1.704-1.8 1.884a.344.344 0 01-.445-.113c-.39-.576-1.134-2.093-1.822-4.781-.734-2.867-.979-5.504-.596-6.413a.26.26 0 01.37-.124c.518.3 1.806 1.392 4.242 5.367.548.894 1.02 1.676 1.296 2.134zm7.436-.964c-.674 2.635-1.403 4.145-1.795 4.745a.405.405 0 01-.55.117c-.73-.445-1.928-1.898-2.97-3.894.276-.457.75-1.24 1.3-2.138 2.443-3.987 3.732-5.074 4.245-5.37a.252.252 0 01.365.123l.002.004c.382.909.137 3.546-.597 6.413zm2.31-7.11c-.466-1.109-1.246-1.327-1.67-1.358-1.581-.116-3.444 1.787-6.244 6.357-.282.46-.543.89-.77 1.263-.225-.371-.487-.8-.77-1.263-2.8-4.571-4.67-6.472-6.244-6.357-.424.031-1.204.25-1.67 1.358-.644 1.53-.16 4.52.185 6.168.522 2.487 1.362 4.964 2.141 6.311.518.896 1.036 1.353 1.63 1.438.094.013.191.02.287.02 1.754 0 3.423-2.25 4.44-3.965 1.019 1.715 2.688 3.965 4.442 3.965.096 0 .193-.007.288-.02.593-.085 1.111-.542 1.629-1.438.779-1.347 1.619-3.824 2.14-6.311.346-1.647.83-4.639.186-6.168z"/></g></svg><svg width="20" height="20" fill="none" y="330" xmlns="http://www.w3.org/2000/svg"><path fill-rule="evenodd" clip-rule="evenodd" d="M.999 9.55C.999 5.369 4.893 2 9.673 2l.16.001L10 2c4.97 0 9 3.413 9 7.624 0 4.21-4.03 7.624-9 7.624-1.235 0-2.411-.21-3.483-.592a.904.904 0 00-.388.137l-1.907 1.15a.357.357 0 01-.16.057.305.305 0 01-.296-.309c0-.066.017-.115.037-.175l.017-.05c.026-.027.268-.954.402-1.515 0-.028.007-.063.014-.098s.013-.07.013-.099a.632.632 0 00-.09-.33c-1.934-1.398-3.16-3.478-3.16-5.8V9.55zm12.226-1.238c-.625 0-1.12-.519-1.12-1.174 0-.656.495-1.175 1.12-1.175.625 0 1.12.52 1.12 1.175 0 .628-.495 1.174-1.12 1.174zM5.618 7.138c0 .655.494 1.174 1.119 1.174s1.12-.546 1.12-1.174c0-.656-.495-1.175-1.12-1.175-.625 0-1.12.52-1.12 1.175z" fill="#8393A5"/></svg><svg width="20" height="20" fill="none" x="20" y="330" xmlns="http://www.w3.org/2000/svg"><path fill-rule="evenodd" clip-rule="evenodd" d="M15.58 16.779h3.91v-1.21c0-.632-.416-.891-2.59-1.782-2.172-.891-1.392-2.487-1.392-2.487.859-1.383.963-2.288.677-4.017-.184-1.111-1.527-1.527-1.79-1.555a2.406 2.406 0 00-.637 0c-.255.028-1.605.444-1.79 1.555-.285 1.73-.181 2.634.678 4.017 0 0 .302.618.006 1.3 2.308.98 2.877 1.44 2.925 2.534l.004.166v1.479z" fill="#8393A5"/><path fill-rule="evenodd" clip-rule="evenodd" d="M14.232 16.533v-1.48c0-.771-.509-1.088-3.165-2.177-2.656-1.09-1.702-3.04-1.702-3.04 1.05-1.69 1.177-2.796.827-4.908-.225-1.359-1.865-1.868-2.187-1.902a2.94 2.94 0 00-.778 0c-.312.034-1.963.543-2.187 1.902-.35 2.112-.223 3.218.827 4.908 0 0 .954 1.95-1.702 3.04C1.509 13.965 1 14.286 1 15.054v1.479h13.232z" fill="#8393A5"/></svg><svg width="20" height="20" fill="none" x="40" y="330" xmlns="http://www.w3.org/2000/svg"><path fill-rule="evenodd" clip-rule="evenodd" d="M14.013 16.922a8.027 8.027 0 003.462-4.065H9.947l4.066 4.065zm-.748.384A7.972 7.972 0 0110 18a8.01 8.01 0 01-2.057-.267v-5.75l.037.037 5.285 5.286zM3.078 14.013a8.028 8.028 0 004.065 3.462v-7.428a2.908 2.908 0 010-.1l-4.065 4.066zm-.384-.748l5.26-5.26.063-.062h-5.75A8.012 8.012 0 002 10c0 1.163.248 2.268.694 3.265zM10 7.143H2.525a8.028 8.028 0 013.462-4.065l4.066 4.065H10zm2.02.837L6.736 2.694A7.972 7.972 0 0110 2c.711 0 1.4.093 2.057.267v5.75a3.046 3.046 0 00-.037-.037zm-.037 4.077h5.75A8.01 8.01 0 0018 10a7.972 7.972 0 00-.694-3.265L12.02 12.02a3.271 3.271 0 01-.037.037zm.873-2.004V10h.001V2.525a8.028 8.028 0 014.065 3.462l-4.066 4.066z" fill="#8393A5"/></svg><svg width="20" height="20" fill="none" x="60" y="330" xmlns="http://www.w3.org/2000/svg"><path fill-rule="evenodd" clip-rule="evenodd" d="M10 18a8 8 0 100-16 8 8 0 000 16zm3.556-7.111a.889.889 0 100-1.778.889.889 0 000 1.778zM10.889 10a.889.889 0 11-1.778 0 .889.889 0 011.778 0zm-4.444.889a.889.889 0 100-1.778.889.889 0 000 1.778z" fill="#8393A5"/></svg><svg width="12" height="12" x="347" y="110" xmlns="http://www.w3.org/2000/svg"><path d="M.6 6.433h9.36L6.78 9.775a.603.603 0 000 .86c.24.245.6.245.84 0l4.2-4.296a.603.603 0 000-.86l-4.2-4.295A.64.64 0 007.2 1a.54.54 0 00-.42.184.603.603 0 000 .86l3.18 3.325H.6c-.36 0-.6.172-.6.54 0 .368.3.614.6.614v-.09z" fill-rule="evenodd"/></svg><svg width="20" height="20" fill="none" x="80" y="330" xmlns="http://www.w3.org/2000/svg"><path fill-rule="evenodd" clip-rule="evenodd" d="M1 9.826C1 5.492 5.04 2 10 2s9 3.492 9 7.826-4.04 7.826-9 7.826c-1.357 0-2.674-.266-3.802-.745a.918.918 0 01-.257-.096l-.11-.055a1.24 1.24 0 00-.844-.05l-2.487.287-.159.049c-.445.14-1.056.331-1.177-.049a.785.785 0 01.043-.583l.78-1.602a1.62 1.62 0 00-.008-1.445A6.934 6.934 0 011 9.826zm9 3.438c-1.443 0-2.656-.907-3-2.134l6 .004c-.345 1.225-1.557 2.13-3 2.13z" fill="#19AB4F"/></svg><svg width="22" height="20" fill="none" x="336" y="178" xmlns="http://www.w3.org/2000/svg"><path fill-rule="evenodd" clip-rule="evenodd" d="M18.758 7.293a4.27 4.27 0 00-5.4-.861l-1.159-1.328a7.583 7.583 0 00-.238-.26 6.36 6.36 0 11-1.203 9.444l-3.21-3.548A1.046 1.046 0 119.1 9.337l3.215 3.555.006.007.006.007a4.268 4.268 0 006.431-5.613zM3.656 6.887a4.268 4.268 0 004.991 6.883l1.16 1.329c.077.089.156.175.237.26a6.36 6.36 0 111.203-9.445l3.21 3.549a1.046 1.046 0 11-1.552 1.402L9.69 7.311l-.006-.007-.006-.007a4.268 4.268 0 00-6.022-.41z" fill="#19AB4F"/></svg><svg width="20" height="20" fill="none" x="100" y="330" xmlns="http://www.w3.org/2000/svg"><mask id="o" style="mask-type:alpha" maskUnits="userSpaceOnUse" x="1" y="2" width="18" height="16"><path fill-rule="evenodd" clip-rule="evenodd" d="M1 2h18v15.3H1V2z" fill="#fff"/></mask><g mask="url(#o)" fill-rule="evenodd" clip-rule="evenodd" fill="#19AB4F"><path d="M8.938 11.437a20.821 20.821 0 01-1.245 2.046c-.862 1.232-1.458 1.704-1.8 1.884a.344.344 0 01-.445-.113c-.39-.576-1.134-2.093-1.822-4.781-.734-2.867-.979-5.504-.596-6.413a.26.26 0 01.37-.124c.518.3 1.806 1.392 4.242 5.367.548.894 1.02 1.676 1.296 2.134zm7.436-.964c-.674 2.635-1.403 4.145-1.795 4.745a.405.405 0 01-.55.117c-.73-.445-1.928-1.898-2.97-3.894.276-.457.75-1.24 1.3-2.138 2.443-3.987 3.732-5.074 4.245-5.37a.252.252 0 01.365.123l.002.004c.382.909.137 3.546-.597 6.413zm2.31-7.11c-.466-1.109-1.246-1.327-1.67-1.358-1.581-.116-3.444 1.787-6.244 6.357-.282.46-.543.89-.77 1.263-.225-.371-.487-.8-.77-1.263-2.8-4.571-4.67-6.472-6.244-6.357-.424.031-1.204.25-1.67 1.358-.644 1.53-.16 4.52.185 6.168.522 2.487 1.362 4.964 2.141 6.311.518.896 1.036 1.353 1.63 1.438.094.013.191.02.287.02 1.754 0 3.423-2.25 4.44-3.965 1.019 1.715 2.688 3.965 4.442 3.965.096 0 .193-.007.288-.02.593-.085 1.111-.542 1.629-1.438.779-1.347 1.619-3.824 2.14-6.311.346-1.647.83-4.639.186-6.168z"/><path d="M8.938 11.437a20.821 20.821 0 01-1.245 2.046c-.862 1.232-1.458 1.704-1.8 1.884a.344.344 0 01-.445-.113c-.39-.576-1.134-2.093-1.822-4.781-.734-2.867-.979-5.504-.596-6.413a.26.26 0 01.37-.124c.518.3 1.806 1.392 4.242 5.367.548.894 1.02 1.676 1.296 2.134zm7.436-.964c-.674 2.635-1.403 4.145-1.795 4.745a.405.405 0 01-.55.117c-.73-.445-1.928-1.898-2.97-3.894.276-.457.75-1.24 1.3-2.138 2.443-3.987 3.732-5.074 4.245-5.37a.252.252 0 01.365.123l.002.004c.382.909.137 3.546-.597 6.413zm2.31-7.11c-.466-1.109-1.246-1.327-1.67-1.358-1.581-.116-3.444 1.787-6.244 6.357-.282.46-.543.89-.77 1.263-.225-.371-.487-.8-.77-1.263-2.8-4.571-4.67-6.472-6.244-6.357-.424.031-1.204.25-1.67 1.358-.644 1.53-.16 4.52.185 6.168.522 2.487 1.362 4.964 2.141 6.311.518.896 1.036 1.353 1.63 1.438.094.013.191.02.287.02 1.754 0 3.423-2.25 4.44-3.965 1.019 1.715 2.688 3.965 4.442 3.965.096 0 .193-.007.288-.02.593-.085 1.111-.542 1.629-1.438.779-1.347 1.619-3.824 2.14-6.311.346-1.647.83-4.639.186-6.168z"/></g></svg><svg width="20" height="20" fill="none" x="120" y="330" xmlns="http://www.w3.org/2000/svg"><path fill-rule="evenodd" clip-rule="evenodd" d="M.999 9.55C.999 5.369 4.893 2 9.673 2l.16.001L10 2c4.97 0 9 3.413 9 7.624 0 4.21-4.03 7.624-9 7.624-1.235 0-2.411-.21-3.483-.592a.904.904 0 00-.388.137l-1.907 1.15a.357.357 0 01-.16.057.305.305 0 01-.296-.309c0-.066.017-.115.037-.175l.017-.05c.026-.027.268-.954.402-1.515 0-.028.007-.063.014-.098s.013-.07.013-.099a.632.632 0 00-.09-.33c-1.934-1.398-3.16-3.478-3.16-5.8V9.55zm12.226-1.238c-.625 0-1.12-.519-1.12-1.174 0-.656.495-1.175 1.12-1.175.625 0 1.12.52 1.12 1.175 0 .628-.495 1.174-1.12 1.174zM5.618 7.138c0 .655.494 1.174 1.119 1.174s1.12-.546 1.12-1.174c0-.656-.495-1.175-1.12-1.175-.625 0-1.12.52-1.12 1.175z" fill="#19AB4F"/></svg><svg width="20" height="20" fill="none" x="140" y="330" xmlns="http://www.w3.org/2000/svg"><path fill-rule="evenodd" clip-rule="evenodd" d="M15.58 16.779h3.91v-1.21c0-.632-.416-.891-2.59-1.782-2.172-.891-1.392-2.487-1.392-2.487.859-1.383.963-2.288.677-4.017-.184-1.111-1.527-1.527-1.79-1.555a2.406 2.406 0 00-.637 0c-.255.028-1.605.444-1.79 1.555-.285 1.73-.181 2.634.678 4.017 0 0 .302.618.006 1.3 2.308.98 2.877 1.44 2.925 2.534l.004.166v1.479z" fill="#19AB4F"/><path fill-rule="evenodd" clip-rule="evenodd" d="M14.232 16.533v-1.48c0-.771-.509-1.088-3.165-2.177-2.656-1.09-1.702-3.04-1.702-3.04 1.05-1.69 1.177-2.796.827-4.908-.225-1.359-1.865-1.868-2.187-1.902a2.94 2.94 0 00-.778 0c-.312.034-1.963.543-2.187 1.902-.35 2.112-.223 3.218.827 4.908 0 0 .954 1.95-1.702 3.04C1.509 13.965 1 14.286 1 15.054v1.479h13.232z" fill="#19AB4F"/></svg><svg width="20" height="20" fill="none" x="160" y="330" xmlns="http://www.w3.org/2000/svg"><path fill-rule="evenodd" clip-rule="evenodd" d="M14.013 16.922a8.027 8.027 0 003.462-4.065H9.947l4.066 4.065zm-.748.384A7.972 7.972 0 0110 18a8.01 8.01 0 01-2.057-.267v-5.75l.037.037 5.285 5.286zM3.078 14.013a8.028 8.028 0 004.065 3.462v-7.428a2.908 2.908 0 010-.1l-4.065 4.066zm-.384-.748l5.26-5.26.063-.062h-5.75A8.012 8.012 0 002 10c0 1.163.248 2.268.694 3.265zM10 7.143H2.525a8.028 8.028 0 013.462-4.065l4.066 4.065H10zm2.02.837L6.736 2.694A7.972 7.972 0 0110 2c.711 0 1.4.093 2.057.267v5.75a3.046 3.046 0 00-.037-.037zm-.037 4.077h5.75A8.01 8.01 0 0018 10a7.972 7.972 0 00-.694-3.265L12.02 12.02a3.271 3.271 0 01-.037.037zm.873-2.004V10h.001V2.525a8.028 8.028 0 014.065 3.462l-4.066 4.066z" fill="#19AB4F"/></svg><svg width="20" height="20" fill="none" x="180" y="330" xmlns="http://www.w3.org/2000/svg"><path fill-rule="evenodd" clip-rule="evenodd" d="M10 18a8 8 0 100-16 8 8 0 000 16zm3.556-7.111a.889.889 0 100-1.778.889.889 0 000 1.778zM10.889 10a.889.889 0 11-1.778 0 .889.889 0 011.778 0zm-4.444.889a.889.889 0 100-1.778.889.889 0 000 1.778z" fill="#19AB4F"/></svg><svg width="12" height="12" x="336" y="166" xmlns="http://www.w3.org/2000/svg"><path d="M.6 6.433h9.36L6.78 9.775a.603.603 0 000 .86c.24.245.6.245.84 0l4.2-4.296a.603.603 0 000-.86l-4.2-4.295A.64.64 0 007.2 1a.54.54 0 00-.42.184.603.603 0 000 .86l3.18 3.325H.6c-.36 0-.6.172-.6.54 0 .368.3.614.6.614v-.09z" fill-rule="evenodd"/></svg></svg>